<mxfile modified="2023-09-30T07:29:20.144Z" host="app.diagrams.net" agent="Mozilla/5.0 (Windows NT 10.0; Win64; x64) AppleWebKit/537.36 (KHTML, like Gecko) Chrome/117.0.0.0 Safari/537.36" etag="S-h3Z3ple77mXtXSZnot" version="22.0.0" type="github">
  <diagram id="Ht1M8jgEwFfnCIfOTk4-" name="Page-1">
    <mxGraphModel dx="1799" dy="1778" grid="1" gridSize="10" guides="1" tooltips="1" connect="1" arrows="1" fold="1" page="1" pageScale="1" pageWidth="1169" pageHeight="827" math="0" shadow="0">
      <root>
        <mxCell id="0" />
        <mxCell id="1" parent="0" />
        <mxCell id="GP0ybidpaaOEdhKrM-CI-12" value="" style="ellipse;shape=cloud;whiteSpace=wrap;html=1;" vertex="1" parent="1">
          <mxGeometry x="284.8" y="-120" width="990" height="950" as="geometry" />
        </mxCell>
        <mxCell id="GP0ybidpaaOEdhKrM-CI-3" value="" style="rounded=0;whiteSpace=wrap;html=1;" vertex="1" parent="1">
          <mxGeometry x="710" y="130" width="250" height="130" as="geometry" />
        </mxCell>
        <mxCell id="GP0ybidpaaOEdhKrM-CI-4" value="" style="rounded=0;whiteSpace=wrap;html=1;" vertex="1" parent="1">
          <mxGeometry x="710" y="320" width="250" height="130" as="geometry" />
        </mxCell>
        <mxCell id="GP0ybidpaaOEdhKrM-CI-5" value="" style="shape=image;verticalLabelPosition=bottom;labelBackgroundColor=default;verticalAlign=top;aspect=fixed;imageAspect=0;image=data:image/svg+xml,PHN2ZyB4bWxucz0iaHR0cDovL3d3dy53My5vcmcvMjAwMC9zdmciIHhtbDpzcGFjZT0icHJlc2VydmUiIHN0eWxlPSJlbmFibGUtYmFja2dyb3VuZDpuZXcgMCAwIDE5OTcuNSAyMDAwIiB2aWV3Qm94PSIwIDAgMTk5Ny41IDIwMDAiPjxsaW5lYXJHcmFkaWVudCBncmFkaWVudFRyYW5zZm9ybT0ibWF0cml4KDEgMCAwIC0xIDAgMjAxMC44NTgpIiB5Mj0iNjQzLjU3NSIgeDI9IjE2NjYuNTkzIiB5MT0iMjIyOS41NTciIHgxPSI0OTguNzgxIiBncmFkaWVudFVuaXRzPSJ1c2VyU3BhY2VPblVzZSIgaWQ9ImEiPjxzdG9wIHN0eWxlPSJzdG9wLWNvbG9yOiM0MWQxZmYiIG9mZnNldD0iMCIvPjxzdG9wIHN0eWxlPSJzdG9wLWNvbG9yOiNiZDM0ZmUiIG9mZnNldD0iMSIvPjwvbGluZWFyR3JhZGllbnQ+PHBhdGggc3R5bGU9ImZpbGw6dXJsKCNhKSIgZD0ibTE5OTAuOSAyOTYtOTM4LjMgMTY3Ny45Yy0xOS40IDM0LjYtNjkuMSAzNC44LTg4LjguNEw2LjggMjk2LjJjLTIxLjQtMzcuNiAxMC43LTgzLjEgNTMuMy03NS41bDkzOS4zIDE2Ny45YzYgMS4xIDEyLjEgMS4xIDE4LjEgMEwxOTM3LjIgMjIxYzQyLjQtNy44IDc0LjcgMzcuNCA1My43IDc1eiIvPjxsaW5lYXJHcmFkaWVudCBncmFkaWVudFRyYW5zZm9ybT0ibWF0cml4KDEgMCAwIC0xIDAgMjAxMC44NTgpIiB5Mj0iNTM5LjQxNyIgeDI9IjEyNjAuNzE4IiB5MT0iMTk4OC41OCIgeDE9IjEwNDkuNDY2IiBncmFkaWVudFVuaXRzPSJ1c2VyU3BhY2VPblVzZSIgaWQ9ImIiPjxzdG9wIHN0eWxlPSJzdG9wLWNvbG9yOiNmZmVhODMiIG9mZnNldD0iMCIvPjxzdG9wIHN0eWxlPSJzdG9wLWNvbG9yOiNmZmRkMzUiIG9mZnNldD0iLjA4MyIvPjxzdG9wIHN0eWxlPSJzdG9wLWNvbG9yOiNmZmE4MDAiIG9mZnNldD0iMSIvPjwvbGluZWFyR3JhZGllbnQ+PHBhdGggc3R5bGU9ImZpbGw6dXJsKCNiKSIgZD0iTTE0NDYuOS41IDc1Mi41IDEzNi42Yy0xMS40IDIuMi0xOS45IDExLjktMjAuNiAyMy41bC00Mi43IDcyMS40Yy0xIDE3IDE0LjYgMzAuMiAzMS4yIDI2LjRsMTkzLjMtNDQuNmMxOC4xLTQuMiAzNC40IDExLjggMzAuNyAzMEw4ODcgMTE3NC40Yy0zLjkgMTguOSAxMy45IDM1LjEgMzIuNCAyOS41bDExOS40LTM2LjNjMTguNS01LjYgMzYuMyAxMC42IDMyLjQgMjkuNkw5NzkuOSAxNjM5Yy01LjcgMjcuNiAzMSA0Mi43IDQ2LjQgMTlsMTAuMi0xNS44TDE2MDIuNCA1MTNjOS41LTE4LjktNi45LTQwLjUtMjcuNi0zNi41bC0xOTkgMzguNGMtMTguNyAzLjYtMzQuNi0xMy44LTI5LjMtMzIuMWwxMjkuOS00NTAuM2M1LjItMTguMi0xMC44LTM1LjctMjkuNS0zMnoiLz48L3N2Zz4=;" vertex="1" parent="1">
          <mxGeometry x="809.52" y="360" width="39.97" height="40" as="geometry" />
        </mxCell>
        <mxCell id="GP0ybidpaaOEdhKrM-CI-13" style="edgeStyle=orthogonalEdgeStyle;rounded=0;orthogonalLoop=1;jettySize=auto;html=1;" edge="1" parent="1" source="GP0ybidpaaOEdhKrM-CI-6" target="GP0ybidpaaOEdhKrM-CI-4">
          <mxGeometry relative="1" as="geometry">
            <Array as="points">
              <mxPoint x="680" y="377" />
              <mxPoint x="680" y="377" />
            </Array>
          </mxGeometry>
        </mxCell>
        <mxCell id="GP0ybidpaaOEdhKrM-CI-15" style="edgeStyle=orthogonalEdgeStyle;rounded=0;orthogonalLoop=1;jettySize=auto;html=1;entryX=-0.003;entryY=0.443;entryDx=0;entryDy=0;entryPerimeter=0;" edge="1" parent="1" source="GP0ybidpaaOEdhKrM-CI-6" target="GP0ybidpaaOEdhKrM-CI-3">
          <mxGeometry relative="1" as="geometry">
            <Array as="points">
              <mxPoint x="537" y="190" />
              <mxPoint x="705" y="190" />
              <mxPoint x="705" y="188" />
            </Array>
          </mxGeometry>
        </mxCell>
        <mxCell id="GP0ybidpaaOEdhKrM-CI-16" style="edgeStyle=orthogonalEdgeStyle;rounded=0;orthogonalLoop=1;jettySize=auto;html=1;entryX=0;entryY=0.5;entryDx=0;entryDy=0;exitX=0.5;exitY=1;exitDx=0;exitDy=0;" edge="1" parent="1" source="GP0ybidpaaOEdhKrM-CI-6" target="GP0ybidpaaOEdhKrM-CI-7">
          <mxGeometry relative="1" as="geometry" />
        </mxCell>
        <mxCell id="GP0ybidpaaOEdhKrM-CI-6" value="" style="shape=image;verticalLabelPosition=bottom;labelBackgroundColor=default;verticalAlign=top;aspect=fixed;imageAspect=0;image=data:image/svg+xml,PHN2ZyB4bWxucz0iaHR0cDovL3d3dy53My5vcmcvMjAwMC9zdmciIGhlaWdodD0iNjQiIHdpZHRoPSI2NCIgdmlld0JveD0iLTM1LjUgMjYgMzIgMzIiPjxwYXRoIGZpbGw9IiMwMDk0MzgiIGQ9Ik0tMzMuNDQyIDQyLjAyM3YtNy42MzdhLjY4LjY4IDAgMCAxIC4zODUtLjY1MWwxMy4xNzMtNy42MDhjLjIzNy0uMTQ4LjUwMy0uMTc4Ljc0LS4wM2wxMy4yMzIgNy42MzdhLjcxLjcxIDAgMCAxIC4zNTUuNjUxVjQ5LjYzYS43MS43MSAwIDAgMS0uMzU1LjY1MWwtMTEuMzY3IDYuNTdhNTYuMjcgNTYuMjcgMCAwIDEtMS44MDYgMS4wMzZjLS4yNjYuMTQ4LS41MzMuMTQ4LS44IDBsLTEzLjIwMi03LjYwOGMtLjIzNy0uMTQ4LS4zNTUtLjMyNi0uMzU1LS42MjJ2LTcuNjM3eiIvPjxwYXRoIGZpbGw9IiNmZWZlZmUiIGQ9Ik0tMjQuMTE4IDM5LjE4djguOWMwIDEuMDA2LS44IDEuODk0LTEuODY1IDEuODY1LS42NS0uMDMtMS4xNTQtLjI5Ni0xLjUtLjg1OC0uMTc4LS4yNjYtLjIzNy0uNTYyLS4yMzctLjg4OFYzNS44MzZjMC0uODMuNTAzLTEuNDIgMS4xNTQtMS42ODdzMS4zMDItLjIwNyAxLjk1NCAwYy42MjIuMTc4IDEuMDk1LjU2MiAxLjUgMS4wMzZsNy44NzQgOS40NDNjLjAzLjAzLjA2LjA5LjExOC4xNDh2LTljMC0uOTQ3LjY1LTEuNjg3IDEuNTctMS43NzYgMS4xNTQtLjE0OCAxLjkyNC42OCAyLjA0MiAxLjU0djEyLjZjMCAuNy0uMzI2IDEuMjE0LS45MTggMS41NC0uNDQ0LjIzNy0uOTE4LjI5Ni0xLjQyLjI2NmEzLjIzIDMuMjMgMCAwIDEtMS45NTQtLjgyOWMtLjI5Ni0uMjY2LS41MDMtLjU5Mi0uNzctLjg4OGwtNy40OS04Ljk3YzAtLjAzLS4wMy0uMDYtLjA2LS4wOXoiLz48L3N2Zz4=;" vertex="1" parent="1">
          <mxGeometry x="480" y="320" width="114.3" height="114.3" as="geometry" />
        </mxCell>
        <mxCell id="GP0ybidpaaOEdhKrM-CI-7" value="" style="rounded=0;whiteSpace=wrap;html=1;" vertex="1" parent="1">
          <mxGeometry x="704.5" y="540" width="250" height="130" as="geometry" />
        </mxCell>
        <mxCell id="GP0ybidpaaOEdhKrM-CI-9" value="" style="shape=image;verticalLabelPosition=bottom;labelBackgroundColor=default;verticalAlign=top;aspect=fixed;imageAspect=0;image=data:image/svg+xml,PHN2ZyB4bWxucz0iaHR0cDovL3d3dy53My5vcmcvMjAwMC9zdmciIGZpbGw9Im5vbmUiIHZpZXdCb3g9IjAgMCAxNTkgNDIiIGhlaWdodD0iNDIiIHdpZHRoPSIxNTkiPiYjeGE7PGcgY2xpcC1wYXRoPSJ1cmwoI2NsaXAwXzY1MjdfODU0KSI+JiN4YTs8cGF0aCBmaWxsPSJ3aGl0ZSIgZD0iTTE1MC45MDEgMjIuMzQ2OEMxNTAuNDg0IDIxLjU4NjEgMTQ5LjkyNSAyMC45NDE4IDE0OS4yMjYgMjAuNDMwNkMxNDguNTE5IDE5LjkxMSAxNDcuNzA3IDE5LjQ5OTQgMTQ2LjgwNiAxOS4yMDQzQzE0NS44ODQgMTguOTAwOSAxNDQuOTM3IDE4LjY0MzIgMTQzLjk5IDE4LjQyN0MxNDIuOTI5IDE4LjE4MTcgMTQxLjg0MyAxNy45MDc0IDE0MC43NjYgMTcuNjIwNkMxMzkuNjY3IDE3LjMyNTUgMTM4Ljc1NCAxNi45NTU1IDEzOC4wNTUgMTYuNTE5QzEzNy43OTkgMTYuMzk4NSAxMzcuNSAxNi4xMzY2IDEzNy41IDE1LjU1ODhDMTM3LjUgMTUuMzM0NCAxMzcuNTU0IDE1LjExNDEgMTM3LjY2OCAxNC44OTM3TDEzNy42ODkgMTQuODYwNUMxMzcuOTMzIDE0LjUxNTUgMTM4LjMyOSAxNC4yMTIgMTM4LjkwNiAxMy45MjUyQzEzOS40NzggMTMuNjQyNiAxNDAuMzA3IDEzLjUwNTQgMTQxLjQ0NCAxMy41MDU0QzE0Mi4zNCAxMy41MDU0IDE0My4xMSAxMy42MjU5IDE0My43MjkgMTMuODY3QzE0NC4zNDQgMTQuMTA4MSAxNDQuODUzIDE0LjM5OTEgMTQ1LjI0OCAxNC43Mzk5QzE0NS42NCAxNS4wNzY2IDE0NS45NiAxNS40NTQ5IDE0Ni4yMDggMTUuODU4MUMxNDYuMzgxIDE2LjE0MDggMTQ2LjUzNiAxNi40MTEgMTQ2LjY2NyAxNi42NTYyTDE1MC42MjMgMTQuMTIwNkMxNTAuMzgzIDEzLjU4NDQgMTUwLjA0NyAxMy4wMTkgMTQ5LjYxNyAxMi40MzcxQzE0OS4xMzggMTEuNzg0NSAxNDguNTIzIDExLjE3NzYgMTQ3Ljc4NyAxMC42Mjg5QzE0Ny4wNSAxMC4wODAyIDE0Ni4xNDkgOS42MTg4IDE0NS4xMSA5LjI2MTMyQzE0NC4wNyA4LjkwMzg0IDE0Mi44MzcgOC43MjUxIDE0MS40NDQgOC43MjUxQzEzOS44MSA4LjcyNTEgMTM4LjQzIDguOTQ1NDEgMTM3LjM0OCA5LjM3MzU1QzEzNi4yNjYgOS44MDU4NiAxMzUuMzgzIDEwLjMyOTYgMTM0LjcyNiAxMC45MzIzQzEzNC4wNjkgMTEuNTM1MSAxMzMuNTczIDEyLjE4MzUgMTMzLjI0NCAxMi44NTY5QzEzMi45MTIgMTMuNTQyOCAxMzIuNjg1IDE0LjE1OCAxMzIuNTY3IDE0LjY5MDFDMTMyLjUzNyAxNC44NjA1IDEzMi41MDggMTUuMDU1OSAxMzIuNDc4IDE1LjI2NzlDMTMyLjQ0OSAxNS40Njc0IDEzMi40MzIgMTUuNjU0NCAxMzIuNDMyIDE1LjgyOUMxMzIuNDMyIDE2LjkzNDcgMTMyLjcxNCAxNy44NjU4IDEzMy4yNjUgMTguNTk3NEMxMzMuODI5IDE5LjM0OTggMTM0LjU0OSAxOS45ODU4IDEzNS40MDQgMjAuNDg0NkMxMzYuMjY2IDIwLjk5MTcgMTM3LjIxOCAyMS40MDMyIDEzOC4yMzIgMjEuNzAyNUMxMzkuMjY3IDIyLjAwNiAxNDAuMjU3IDIyLjI2NzkgMTQxLjE3NCAyMi40Nzk4QzE0Mi4wNzEgMjIuNjkxOCAxNDIuOTI1IDIyLjkxMjIgMTQzLjcyMSAyMy4xMjgzQzE0NC41MzcgMjMuMzQ4NiAxNDUuMjE1IDIzLjYzOTYgMTQ1LjczMyAyMy45OTI5QzE0Ni4yMTIgMjQuMzU4NyAxNDYuNDUyIDI0Ljc5OTMgMTQ2LjQ1MiAyNS4zMDY1QzE0Ni40NTIgMjUuODUxIDE0Ni4yMzggMjYuMjgzMyAxNDUuODEyIDI2LjU5NUMxNDUuNDM0IDI2Ljg2OTQgMTQ0Ljk4OCAyNy4wOTM5IDE0NC40NzggMjcuMjUxOEMxNDMuOTg2IDI3LjQwOTggMTQzLjQ3MiAyNy41MTM3IDE0Mi45NTUgMjcuNTYzNkMxNDIuNDU0IDI3LjYwOTMgMTQyLjAzNyAyNy42MzQyIDE0MS43MTcgMjcuNjM0MkMxNDAuNzM2IDI3LjYzNDIgMTM5Ljg5NSAyNy41Mzg2IDEzOS4yMjUgMjcuMzQ3NEMxMzguNTUyIDI3LjE1NjIgMTM3Ljk5NiAyNi45MzE3IDEzNy41NzUgMjYuNjc0QzEzNy4xNSAyNi40MTYzIDEzNi44MTQgMjYuMTQyIDEzNi41NzggMjUuODU5M0MxMzYuMzU1IDI1LjU5MzMgMTM2LjE5MSAyNS4zNzMgMTM2LjA5IDI1LjIwNjdMMTM1LjYzNSAyNC41NDk5TDEzMS42ODMgMjcuMDgxNEMxMzEuOTk5IDI3LjU2NzcgMTMyLjM5NCAyOC4xMDgxIDEzMi44NTcgMjguNjg1OUMxMzMuMzgzIDI5LjMzODUgMTM0LjA2MSAyOS45NTc5IDEzNC44NzggMzAuNTIzMkMxMzUuNjk0IDMxLjA4ODUgMTM2LjY3NSAzMS41NjY1IDEzNy43OTQgMzEuOTQwN0MxMzguOTE0IDMyLjMxNDggMTQwLjIzMSAzMi41MDE4IDE0MS43MTcgMzIuNTAxOEMxNDIuOTM0IDMyLjUwMTggMTQ0LjAyNCAzMi4zOTM3IDE0NC45NjYgMzIuMTg1OUMxNDUuOTA1IDMxLjk3MzkgMTQ2LjczNCAzMS42OTU0IDE0Ny40MjUgMzEuMzU0NkMxNDguMTExIDMxLjAxNzkgMTQ4LjY5MSAzMC42MjMgMTQ5LjE1NCAzMC4xNzgyQzE0OS42MjIgMjkuNzMzNCAxNTAuMDA5IDI5LjI4MDMgMTUwLjMwOCAyOC44Mzk3QzE1MS4wMjMgMjcuNzc5NyAxNTEuNDMyIDI2LjU1MzUgMTUxLjUyNCAyNS4xOTQyQzE1MS41MjQgMjQuMDYzNiAxNTEuMzE0IDIzLjA5OTIgMTUwLjkwMSAyMi4zNDI3VjIyLjM0NjhaIi8+JiN4YTs8cGF0aCBmaWxsPSJ3aGl0ZSIgZD0iTTU3Ljk1MzcgOC41NDE5OUM1Mi4yNzU4IDguNTQxOTkgNDcuNjU0MyAxMy4xMDYxIDQ3LjY1NDMgMTguNzEzNlYzMi4wNDAySDUyLjU4M1YxOC43MTM2QzUyLjU4MyAxNS43OTE0IDU0Ljk5MDYgMTMuNDEzNyA1Ny45NDk1IDEzLjQxMzdDNjAuOTA4NCAxMy40MTM3IDYzLjMxNiAxNS43OTE0IDYzLjMxNiAxOC43MTM2VjMyLjA0MDJINjguMjQ0N1YxOC43MTM2QzY4LjI0NDcgMTMuMTA2MSA2My42MjMzIDguNTQxOTkgNTcuOTQ1MyA4LjU0MTk5SDU3Ljk1MzdaIi8+JiN4YTs8cGF0aCBmaWxsPSJ3aGl0ZSIgZD0iTTExNy44NTIgOC41NDE5OUMxMTEuMTYgOC41NDE5OSAxMDUuNzE4IDEzLjkxNjcgMTA1LjcxOCAyMC41MjZDMTA1LjcxOCAyNy4xMzUyIDExMS4xNjQgMzIuNTA5OSAxMTcuODUyIDMyLjUwOTlDMTIwLjI4OSAzMi41MDk5IDEyMi42NDIgMzEuNzk5MSAxMjQuNjU0IDMwLjQ1MjNMMTI1LjA1OCAzMC4xODIxVjMyLjAzNjFIMTI5Ljk4N1YyMC41MjZDMTI5Ljk4NyAxMy45MTY3IDEyNC41NDQgOC41NDE5OSAxMTcuODUyIDguNTQxOTlaTTExNy44NTIgMjcuNjQyM0MxMTMuODc5IDI3LjY0MjMgMTEwLjY0NiAyNC40NDk5IDExMC42NDYgMjAuNTI2QzExMC42NDYgMTYuNjAyIDExMy44NzkgMTMuNDA5NiAxMTcuODUyIDEzLjQwOTZDMTIxLjgyNSAxMy40MDk2IDEyNS4wNTggMTYuNjAyIDEyNS4wNTggMjAuNTI2QzEyNS4wNTggMjQuNDQ5OSAxMjEuODI1IDI3LjY0MjMgMTE3Ljg1MiAyNy42NDIzWiIvPiYjeGE7PHBhdGggZmlsbD0id2hpdGUiIGQ9Ik0xMDAuNDQ4IDIyLjM0MjZWMEg5NS41MTkzVjIyLjM0MjZDOTUuNTE5MyAyNy44NjI4IDk5Ljk5NzcgMzIuMzcyOSAxMDUuNTU4IDMyLjUxMDFWMjcuNjM4NEMxMDIuNzE3IDI3LjUwNTMgMTAwLjQ0OCAyNS4xODE3IDEwMC40NDggMjIuMzQyNloiLz4mI3hhOzxwYXRoIGZpbGw9IndoaXRlIiBkPSJNODcuMTAxMiA5LjAxNjExVjIyLjM3MThDODcuMTAxMiAyNC42NDk3IDg1LjYwNyAyNi43MDczIDgzLjQ3MyAyNy4zNzY2QzgxLjc1NTcgMjcuOTEyOCA3OS45NjY5IDI3LjYzODQgNzguNTY1MyAyNi42MjQyQzc3LjE4OSAyNS42MjY2IDc2LjM2ODIgMjQuMDMwNCA3Ni4zNjgyIDIyLjM0NjlWOS4wMTYxMUg3MS40Mzk1VjIyLjMwNTNDNzEuNDM5NSAyNi45MTUyIDc0LjQ5MSAzMC45NTE0IDc4Ljg1NTcgMzIuMTIzNkM4MS41NTc5IDMyLjg1MSA4NC4zNTI3IDMyLjUzNTEgODYuNzE4MSAzMS4yNDI0TDg3LjEwMTIgMzEuMDMwNFYzMS44MzI2Qzg3LjEwMTIgMzQuNjY3NSA4NC44MzI1IDM2Ljk5MTIgODEuOTkxNCAzNy4xMjgzVjQyLjAwMDFDODcuNTUxNSA0MS44NjI5IDkyLjAyOTkgMzcuMzU3IDkyLjAyOTkgMzEuODMyNlY5LjAxNjExSDg3LjEwMTJaIi8+JiN4YTs8cGF0aCBmaWxsPSJ3aGl0ZSIgZD0iTTM0LjYzMTcgNS44Mjc4QzMyLjA2ODQgMy4yOTYzMyAyOC42NTkxIDEuOTAzODEgMjUuMDI2NyAxLjkwMzgxQzIxLjM5NDMgMS45MDM4MSAxNy45ODA4IDMuMjk2MzMgMTUuNDIxOCA1LjgyNzhMMS41Mjc4NCAxOS41NDkzQzEuMTk5NTQgMTkuODczNSAxLjAxODU1IDIwLjMwNTggMS4wMTg1NSAyMC43NjcyQzEuMDE4NTUgMjEuMjI4NiAxLjE5OTU0IDIxLjY2MDkgMS41Mjc4NCAyMS45ODUyQzEuODU2MTUgMjIuMzA5NCAyLjI5Mzg4IDIyLjQ4ODEgMi43NjEwOCAyMi40ODgxQzMuMjI4MjggMjIuNDg4MSAzLjY2NjAyIDIyLjMwOTQgMy45OTQzMiAyMS45ODUyTDE3Ljg4NCA4LjI2MzY3QzIxLjgxOTUgNC4zNzcwOSAyOC4yMjk4IDQuMzc3MDkgMzIuMTY1MiA4LjI2MzY3QzM2LjEwMDYgMTIuMTU0NCAzNi4xMDQ4IDE4LjQ4MSAzMi4xNjUyIDIyLjM2NzZMMTguMjc1NSAzNi4wODQ5QzE3LjU5NzggMzYuNzU0MiAxNy41OTc4IDM3Ljg0NzQgMTguMjc1NSAzOC41MjA4QzE4LjYwMzggMzguODQ1IDE5LjA0MTUgMzkuMDIzOCAxOS41MDg3IDM5LjAyMzhDMTkuOTc1OSAzOS4wMjM4IDIwLjQxMzYgMzguODQ1IDIwLjc0MTkgMzguNTIwOEwzNC42MzE3IDI0LjgwMzRDMzcuMTk0OSAyMi4yNzIgMzguNjA1IDE4LjkwNSAzOC42MDUgMTUuMzE3N0MzOC42MDUgMTEuNzMwNCAzNy4xOTQ5IDguMzU5MjcgMzQuNjMxNyA1LjgzMTk2VjUuODI3OFoiLz4mI3hhOzxwYXRoIGZpbGw9IndoaXRlIiBkPSJNMzIuNjg3MyAxNS4zMTc2QzMyLjY4NzMgMTMuMjkzMyAzMS44OTE4IDExLjM5MzYgMzAuNDQzOSA5Ljk2Nzg3QzI3LjQ1NTUgNy4wMTY1NyAyMi41OTQxIDcuMDE2NTcgMTkuNjA1NyA5Ljk2Nzg3TDEuMTQ5MTggMjguMTkxMkMwLjgyMDg4IDI4LjUxNTQgMC42Mzk4OTMgMjguOTQ3NyAwLjYzOTg5MyAyOS40MDkxQzAuNjM5ODkzIDI5Ljg3MDUgMC44MjA4OCAzMC4zMDI4IDEuMTQ5MTggMzAuNjI3QzEuNDc3NDggMzAuOTUxMiAxLjkxNTIyIDMxLjEzIDIuMzgyNDIgMzEuMTNDMi44NDk2MiAzMS4xMyAzLjI4NzM2IDMwLjk1MTIgMy42MTU2NiAzMC42MjdMMjEuODcwMSAxMi42MTk5TDIxLjg5OTYgMTIuNTg2NkMyMS45NTQzIDEyLjUyNDMgMjIuMDEzMiAxMi40NTc4IDIyLjA3MjEgMTIuMzk5NkMyMi4xMzk1IDEyLjMzMzEgMjIuMjE1MyAxMi4yNzA3IDIyLjI4NjggMTIuMjA4NEwyMi4zMjg5IDEyLjE3MUMyMy45NzQ2IDEwLjc5NTEgMjYuNDU3OSAxMC44OTQ4IDI3Ljk4MTYgMTIuMzk5NkMyOS41MDUyIDEzLjkwNDMgMjkuNjA2MyAxNi4xNjk4IDI4LjM1NjIgMTcuODAzNEwyOC4zNDM2IDE3LjgyQzI4LjIxMzEgMTcuOTg2MyAyOC4wOTk0IDE4LjExOTMgMjcuOTgxNiAxOC4yMzU3QzI3Ljg2NzkgMTguMzQ3OSAyNy43Mzc1IDE4LjQ2MDIgMjcuNTUyMyAxOC42MDU2TDkuNTI1MSAzNi40NTlDOS4xOTY4IDM2Ljc4MzIgOS4wMTU4MSAzNy4yMTU1IDkuMDE1ODEgMzcuNjc2OUM5LjAxNTgxIDM4LjEzODMgOS4xOTY4IDM4LjU3MDYgOS41MjUxIDM4Ljg5NDhDOS44NTM0IDM5LjIxOTEgMTAuMjkxMSAzOS4zOTc4IDEwLjc1ODMgMzkuMzk3OEMxMS4yMjU1IDM5LjM5NzggMTEuNjYzMyAzOS4yMTkxIDExLjk5MTYgMzguODk0OEwzMC40NDgxIDIwLjY2NzRDMzEuODkxOCAxOS4yNDE2IDMyLjY5MTUgMTcuMzM3OCAzMi42OTE1IDE1LjMxNzZIMzIuNjg3M1oiLz4mI3hhOzxwYXRoIGZpbGw9IndoaXRlIiBkPSJNMjMuMjk2OSAxOS4wNjdDMjIuODMzOSAxOC44NTkyIDIyLjQyMTQgMTguNTgwNyAyMi4wNzIxIDE4LjIzNTdDMjEuNzIyNyAxNy44OTA3IDIxLjQ0MDcgMTcuNDgzMyAyMS4yMzAyIDE3LjAyNkwyMS4xMDQgMTYuNzU1OUwwLjcxNTU2IDM2Ljg5MTJDMC4zMTU3MDUgMzcuMjg2MSAwLjA2NzM3MzMgMzcuNzg1IDAuMDEyNjU2MiAzOC4yOTIxQy0wLjA0MjA2MDggMzguODA3NSAwLjEwOTQ2MyAzOS4yNjg5IDAuNDQxOTc1IDM5LjU5NzNDMC43MjM5NzggMzkuODc1OCAxLjEyMzgzIDQwLjAyOTYgMS41NjE1NyA0MC4wMjk2QzIuMTM4MiA0MC4wMjk2IDIuNzI3NDYgMzkuNzcxOSAzLjE4MjA0IDM5LjMyM0wyMy41NzA1IDE5LjE4NzZMMjMuMjk2OSAxOS4wNjI5VjE5LjA2N1oiLz4mI3hhOzxwYXRoIGZpbGw9IndoaXRlIiBkPSJNMTU1LjMzMyAyOC44MTg4VjI5LjEyNjRIMTU0LjUzNFYzMS43MTYxSDE1NC4xNTFWMjkuMTI2NEgxNTMuMzQ3VjI4LjgxODhIMTU1LjMzM1oiLz4mI3hhOzxwYXRoIGZpbGw9IndoaXRlIiBkPSJNMTU4Ljc4IDI4LjgzOThWMzEuNzE2M0gxNTguMzk3VjI5LjU3MTRMMTU3LjQyOSAzMS43MTYzSDE1Ny4xNkwxNTYuMTg4IDI5LjU2NzNWMzEuNzE2M0gxNTUuODA1VjI4LjgzOThIMTU2LjIxN0wxNTcuMjk1IDMxLjIxNzVMMTU4LjM3MiAyOC44Mzk4SDE1OC43OFoiLz4mI3hhOzwvZz4mI3hhOzxkZWZzPiYjeGE7PGNsaXBQYXRoIGlkPSJjbGlwMF82NTI3Xzg1NCI+JiN4YTs8cmVjdCBmaWxsPSJ3aGl0ZSIgaGVpZ2h0PSI0MiIgd2lkdGg9IjE1OC43OCIvPiYjeGE7PC9jbGlwUGF0aD4mI3hhOzwvZGVmcz4mI3hhOzwvc3ZnPg==;" vertex="1" parent="1">
          <mxGeometry x="750" y="174" width="159" height="42" as="geometry" />
        </mxCell>
        <mxCell id="GP0ybidpaaOEdhKrM-CI-10" value="" style="shape=image;verticalLabelPosition=bottom;labelBackgroundColor=default;verticalAlign=top;aspect=fixed;imageAspect=0;image=data:image/png,iVBORw0KGgoAAAANSUhEUgAAAqQAAAC3CAYAAADEm0y1AAAAAXNSR0IArs4c6QAAAARnQU1BAACxjwv8YQUAAAAJcEhZcwAADsMAAA7DAcdvqGQAAKa1SURBVHhe7Z0JnBXF1bfxZoKIiIgbcYsxbjG+vn5q3GISYtS4EONGRKMEUUFRCe6IGFGCGBGQiLKJuKK+KOCCyCYiQQREBAREdoZt2Id9GO7k+z81da7NdZY7y50F6/n9erqnb3d11alTp05VV1fVCAQCgUAgEAgEAoFAIBAIBAKBQCAQCAQCgUAgEAgEAoFAIBAIBAKBQCAQCAQCgUAgEAgEAoFAIBAIBAKBQCAQCAQCgUAgEAgEAoFAIBAIBAKBQCAQCAQCgUAgENhj2cvvAyUn4+CDD661Zs2aHZdcckmD3/72t5f+7ne/+2OdOnXqiwZ169atv/fee9eOib322ivm76mxc+fOHdu2bdu0YcOGVUuWLJk9adKksdpGT5kyZePKlSt3cUn+lYFAIBAIBAKBwPeJHX300bX++Mc/1n/66adv+eqrr4bn5ORs/u9//xvftWtXTnZ29nahf78jLy/vv/rNbQbHOh/3/7LPlaO6dcaMGWN69ep1Z8OGDev45wUCgUAgEAgEAvmce+65h7z44osPzJ49eywOJI4kTmVubu5/5ZT+d9OmTTiXRRKPx/8rx/O/O3bscHuc1WRwTBXm1pUrV8559tlnW5x00kn1fRQCgUAgEAgEAj9EmjRpcti4ceP6Z2Zmzlq7du0S7zc6hxInFCcTzNm0DUeVnlD7vTD4nV7VLVu2/Hfjxo3+7H//u3Xr1mztXO/pyJEjn23UqNFBik7N/FgFAoFAIBAIBPZ4GjZseNCUKVOG4BB6xzABziNblORX9UAPKA4nzilO6rZt29x1bByz0bsahXObN29210de93NR7mefffa6HNOjfBQDgUAgEAgEAnsgsZNOOqnOa6+99hgOIA7imjVr/pudnU2PpXMUkx1IzuFwFgWOZXHXQPQaHFOeaz2t9MbKkWW8au6oUaP6nHPOOeFVfiAQCAQCgcCexM9//vNDbr311nPnzZs3UU5fHAcUhzAZHEScRfY4mjioXGvn6NnkHE5kMjiVXGu9nwb/Ww8rDvCGDRvcMfAaPzo+lft4nT9r1qzx7dq1+4uiHl7jBwKBQCAQCFR3fvKTn9QeMmTIc/L34nImt+MgAg4mHyCx4UjiDPIK3rYoUQeU3/jfnE720d85LshhjcIzo72xHBMv2zzxl19+uRNf/vukBAKBQCAQCASqG5dddtkxCxcunIJzhxNoRHstAacy4gg6BxGH1aCH1JBDmiuHM5e97tMu7o51P87uds5xHffzjKhzak6s9bYaFhccY8Mfx7/66quxF1100SE+SYFAIBAIBAKB6kLTpk1PWbFixZzNDAT14GjymrygHk2cTjY5l/6XfEdR9+AZurlI9X+2gluj6zboOrxIujlz9BvX4KDmyNF019sm55P7Es/EGbVn4CSvW7fOHYM5vvy+du1adyziU6ZMGeHHlYbe0kAgEAgEAoFqQOyhhx66fMOGDZneoUs4m1FwDM1JjML5rKyszTif/Ivz+fnnnw955ZVXHnv88cebXH311ScW8Ro9xhf8DzzwwOVvv/1215kzZ47Lzs7OIhw5wivXr1+feE8fnQaKuNFjGo2jjUc1cIz1/GZ6RhhXGggEAoFAIFCVadu27cX0YuLE0dMY/WgIB5ReUnt1Dpyjp5Jr5YS6lZm05U6fPv3d++677wKcT8ahKujEEqEloOaFF154WKtWrc5bsGDBBMKWo7lh9erVK3k2yEl1ceD5thnmpHJO1+QuXLhwert27ZrUr1+/rg8fQq9pIBAIBAKBKssPbi37m2+++eQnn3zy3YMOOugYOX41atWqVeNHP/pRDTlzNTIyMlhr3v3PBhs2bKhRs2bNGvvuuy//5q1du3bxe++991z//v1f++yzz1a7i8qX2CuvvNLuxhtvfJRjOcZ5sVgsIzc3t8aPf/xjd4EcZrftt99+Nfbaa68ackZdfLds2VKjTp06NRYtWvRVt27dHp0zZ87XJ5100jFnnXXWH0444YRTDjjggEOUxpp77713LYXlelEV7k6FtUPp35mdnb121qxZX4wfP374lClTZn/11VfbdAnr6+dxbSAQCAQCgUCgjFx//fXHrF+/3q22RC8o2IdM/B/9YIj//etwN85z1apVC/r169fukksuOcIHl3Z69OhxjxzgTMVju+KTE52Mn15Rhg5Eib6+37x5MwNPXdzZdK1LsPxbt+SpYf/zG8+RY8p17h6GEHz66advdOrU6S+NGzcOE/IHAoFAIBAIlIULLrjgqG+//Xa8d7gYA8rOsWjRIn+UDx8LLVu2jEMcM5bu7NWoUaMTfVAVSezGG288Y9q0ae/Kd8zNzs5ep/gTrwT8jyPKR1GAo8oxzip7HGuusd9BYbnf2Tg2uNauj6JzW+XIZ0pOU7t163bbKaecwhf9pRmeEAgEAoFAIPDDhNWXJkyYMEi+lfO+rFcUh8x6RXHk8vLyopPS00OY+eijj/7l4IMPruODqhQYD/rII4/8RXHiA6rNFlecyahDCdFeUpzQ6P8cJzubYE6tQZj8j3OKjHgW6Dq6ZON8hDV8+PA+11577ck+ioFAIBAIBAKBonjttdfayrH6rotQ8KEQRJ00jrVxXXzevHkT+FreB1ElaNmy5VUrV650c0CxipTF25zqqLMZPQac8OQeUYNrzQFlb9fgiPK/OaXW82ps2bJl3ZgxY1697rrrTvFRDAQCgUAgEAgk06hRo4M2b96cJYcqbq+zDZtWCQcMh82c0fnz509s2LBhAx9EpcMX/DfddNP5U6ZMGe8iLKIzAzCNqvVqRuFcQQ6oOZpR5xMKuz4Kv3tZ+TNuudMlEydOfMtHNxAIBAKBQCAQZcaMGcPlMzFpvXPEomMkzSHlY6Hc/I9+4jNnzhx17rnnVplVj04//fSDBg0a1IOpoFxkBU519AMn0kTagLTRY8o1lmbDekmT4TobxgDcg5O7evVqN542+hsQBs/nuYaOt+raRS1atDivsoc4BAKBQCAQCFQZ2rdvf5F8Jb4w361nFCcr2sPnnTvXMyoHkPlEqwQvvfTSPxQvN24TJ5HeyehrcxzJaDqs1zMK93FPNP0mDzZzziHqYBYETqpdT7gcmzPLEAJPfMiQId39qlGBQCAQCAQCP1yYrF6O12Y5TCzV6Ry1gsZa4pyK+NKlS6dX5JRORdG6devzNmzYwPRUcca62ut50hB9pc4QBHMizfG0tOF08oEW6TMH1npIuTYKYdp5noGDbrIyuNeeb85oNC5AjypOq4ivXLly1pVXXnm8T1IgEAgEAoHAD4/evXu3wjGK9gxC8utnOVV4a7nNmjU7299aKTBO9NJLL23w5Zdfvku05BAmuhxxEL2jlwAHMuo0Ro8jDjceo9vkTG7FOZcz6Xpctdk+sUk2tgqVw8bc8ixzagHHlPP8bo4qG3DO4pqZmTmLFaiUvLBSVCAQCAQCgULZI1dqond09uzZmdnZ2XUaNGhQS76RO8+qRnKk3MpLckTdXuS98MIL99566609dcyqRBUOa9vfdtttra666qr75fjtql27dj3O5+Tk1JCjybRP7jrSQbx1jTvee++9EytKySF0+x//+MfyOfN26f9tunbn+vXrF0+ePHmktonLly9fof83rlq1amO9evW2fPLJJ3lnnXVWnYPEgQceeNDpp59+3i9/+cv/Pfnkk8/VMw9T2BmsEqVg3ZyjyE7/uxWj2BeEnp2Ip5fvrhdffPH+m2+++Rl3QSAQCAQCgcAPgbZt2zaUU+S69KyHlNfeyV+mi/icOXPG6JbKmuQ9o0ePHretW7duAXGRM+d6J+l11DkOHfQ+Enf97v6Xs+f2wDml0X2QpS1XTuyGcePG9WnevPkZ/hklBQfUOclPP/10C7+YwHY5wbt3NQviwZAB6z21D604H+2xZX19Of0PuNADgUAgEAgEfgjIeWO5TecR4RyZA2cOHWzcuHGNdrmNGjWqlCUx5TRfIEdtouKQ8C7NeQYcZpsFAPg/8ire/SbHlXudI7p8+fKpbdq0ucCvolSeZFx++eXHDhw48DHFb522bMk2EVEcT+SL02xEj3FSfUMg3rlz51sUXljhKRAIBAKBwJ6NnKfD5PzkmlNkH/3g7NHzaP/T4zd69Og+usW9V64omjZtevy0adPeIgrEw+JkziYfMVkcweINpIlj72A7Z3TKlCnvNm/enHGa6aYm02E988wzrTds2LBccUgMKjXHGYff4hh1/okv5+SYrnnooYeu8uEFAoFAIBAI7FnwUZB2Ga+//noPOUXbbSUme43Ma2WcpIizl0vPX/7daSejYcOGGUOHDu28bNmymXq2m4rK4gbRXkXg46DoEAO+mOd/xZ+e3/iSJUumdunS5Yaf//znFT1naq0//OEPx3z22WdvsYSo4kVPc2LaJ2TMRvqiPb72Wh9ntqqtgBUIBAKBQCBQFtx4x5tuuum0//u//+s6YcKE9+XzuO5Dc4Bw7HD27LU953fs2LF51qxZ41wIaeakk06q2aFDh0Y2TtRFQuCs8bobB5m4WQ8pjl3UOY30NroeUaVnw8CBA//BhPn+EZWG0tWU+GzcuHElEUTWbAYON/E3cKphwYIFU5GLDyYQCAQCgUCg2hHDmWnZsuUZo0eP7icnJ1NO3WZ665y3I3D2ok5o1MGzj5natGlzhQ8vbVx33XUnTps2DSfZecc4oDhpFi+w19kGDipOMw5qpIeRG3InTZr08mWXXXaMD75KwBCJZcuWTSeOpC15rKs529ZA8B9rxcePHx+WGg0EAoFAIFDtyMAR7dGjR4uNGzdm4tTk+a/SDV5pyzlyDh7OX/SVN72MOKa6d7Oco+0+zLRA7+XYsWNf1WNd/HDSIkMFXC8izps5aRB1UoG4y5Hjpvj06dNH8cGSD75Kwlr2xJW4k5bocIRoOv1CBBC/9957w3jSQCAQCAQC1YMLL7zwsFdfffU+ekNxZPBmcDh9b6cjOk1SMjiA9DZ6p3T7Rx991N8HXZ64yd9ffPHFB/TIXJzllStXJno/eX70dTbgtPGKnmvMIWW1I53Hg4uzNvzzzz9/z69+9asG7glVnA8//LCXd6Kd42k9pdZDbeN6OU+a9f/ys846q66/PRAIBAKBQKDqcdJJJ9Xv3bt3Czmii+THJBzRyKts59hEX8kDjqp9ZMM+er2I33DDDef6R5QLp556ar3777//UjmcaxSXrX7M527YOZzSqCMN5rj5a/jgaevbb7/duWHDhtVqhSN6sEeNGtWHNFiagPSSNuspJc/87/GhQ4f28LcHAoFAIBAIVC0aN2587KpVq6bgtOTk5ORGHRygJ7E0xOPx3PL8oOaWW245e+HChVPkcDlvC8eLuLLhgNmYUAPnOPp6nmOulZOGl5r73nvvdWdcJqtN+UdUN2Jff/31CJIWbSggg6gjbg0Gxv8yCb+/NxAIBAKBQKBKULNv375N5Ktsl9O5RjjHBXgtb06N9Tgy1hLHx/4vDjm5i/wUUWUCp/ajjz7qpyD58n07TiXxSHZAo9hvxBXH1KcF7zR348aNi26++eaT6W31j6i2sCb/kiVLppG25B5tG9eLrLxTGh8+fDjzwQYCgUAgEAhUPownnDFjBh8D5cqJSXwFZBOvA84cGw4Nzl30w6XikNOYM3HixPf1qDL1Pvbq1au1gnPjRHn97MN2eyBuNm4VJ5TNrgOO5YzipfFqe3O/fv1a+KD3GO6///5GSl/u+vXrt0d7hKO9pJHj+EUXXVTR86kGAoFAIBAI7Ebs1ltvPX7RokVjcU7wUKxXDeeTXjY7Zos6f3Yc7UktDN2bO3DgwK7+mSUl46qrrjomKytrloKKr1q1Kj9QYV+O43gVFEfDf4jlJrbXlvv+++/3aNiwYbXvES2IeuKdd97pRDqRBU64fdSFw274c/ERI0bwoZmbVzYQCAQCgUCgonHO6KZNm9wX9HyJbT1qvKKPOjG84qVX1HpHcfBw/qAgB7AA4l26dGntn1sirrjiiqN1v/zk7dn0eBrEz3o/o1M5WbzAenJxiPl3xowZw5jM3wddEVTKeFSGNSi9Oco3PvZKNCwsT4F88xPm555zzjn1/a0/NHDEo8NImGu3DmNrGzdufFSzZs1OVBk5tUWLFqc1bdr0FBpG9ChzDdfm3xIIBAKBQKDUtG3b9gI5Km5S+8xMfNJ8li9f7o92f82Lo2dOn4fpkZb44+KIP/DAA9fosSWqxI8++uh648aN6694FNoNa1MaAc5X8jyjclqzSWebNm3O98GmldNPP732Sy+91D4rK2vuvHnzJvzf//3fP+TgNKjoj6X69+9/mxzQ/CWaBDJho9FhU3XhoOKsP/vss610yw+hl9T0L4aDKRm1nTx58jvSmSxkJSed1wOu8eI3WmgFbbmSY470bbP0a8OcOXPGDRo0qMvtt99+QXl+uBcIBALlCPYPOx/dOJe8RUn+vypTWFwLSlcgwl5+XxlkqDI+pkePHqPq1at3lJzRGkceeWQNOW01cnJyatSvn99Zpkq6hipoXgG7vSrfGrVru86kvJUrV341Y8aMd0eNGvX1ddddd5ecsIbupsLJu+22237fp0+fT/3/KXHuueceMmHChOU6zCB+GzZsqHHQQQfVqFWrlosvcTrggAPctXIS3P8/+tGPamRkON8qb9WqVfO//fbbT373u9+1dBelEcbhShY3XHHFFS2POuqokySzXTGh+BCZvFdfffWxbt269fzqq6825t+RXo499ti6I0aMGH7MMcecrX9j5O3ee+9dQw5UDTlTNfbdd1+T2bbVq1fPP//8838zf/78Tfl371E4Zbj00ksPuuqqq675wx/+8Fc1Ds7QKWeg5KTv2muvvWpqq2EbcmGTs+72nIPoNbYBMv3xj3+8S3lNmOjdwvHjx3/w7rvvDpL+frN48eKdOr/NXRwIBAIVxD//+c+zDz300LNly2rJXmVoy+O87Jo5aOx/lH+YIK6NV427tN82ceLE91566aXF7pcqzNNPP32N6rVjlcZ9RE1Vv6QhZ/v27Tv8JVTJBTqmEXlEKfDaJJw8DZNvUSQ9q7BnkCd0fuyQr7PsnnvueVv/U4/sWTRu3LiBf03/XyaQh2hPKL1m0Vfj9hpflS7vfXNHjx7dlemRFJQT5NSpU0e5C4pAvlnOjTfeiBNQIhjnqdtz9ezd4hT9oIq4K3z/n4OlNNeNHDmylxyQI3xQaeXRRx/9y6RJk4bxbBcByUyOnuuRpMfWlu1UvFd26tSpiW5JRdHLTP/+/VtINtuRn2HTPknJo3LM9bfsUfDaffDgwZ3Wr1+/SPqDkrv8QZfQ8yS9cW8ByDs2jo3oeduSQcZ8BEi4hq7LVSNqucrMgCZNmpRY/wOBQKC0qP6so3oIg4/B+r7RKh7uyZ0+ffq7Cq6qT4cYU8N/imy7fSvi7K/qufwKr+IwWaeyFYe7jjw86aST9sxhdUrcBl5P2sdLfoxlwimNVqiMMVSl7V5dfvrpp69ee+21x/tgHAcffHCdUaNGvZ5/deEo/NxWrVpd5G9LGRxfKZWLKI4UcTTHlDjj7EHkFX18zpw5Y1q3bn2eDyKt3HTTTcfMmjVrlJwRp/TEyeRKnEymOD7IUr87BZs3b96ku+6660wFkfbXu3pejp6f8Oaj+YtTChTiV1555QF/S3Uno2XLlmcsWLBgnJKmbMjNz5BKRHJ2zvDy5cvnPPTQQ9dU47luA4FANeGll176B3bHGaEygL9QHRwi2fzpim5icRjq4z0BpSNnj6wzli5dOlEOqBs3apmGg2djCu0Ldhwp70yxetH2p5566hZen/tgdmPmzJlMxl4kEigO6cX+lpSJOqRRcKKtd49WELuVK1fO69y5c4VM48RHLUOGDOkq536rnFEnqOhYVvsIDCK9kM6BjsxKkDtixIjn+FBGQaarx7TW5MmTX5WMnENKAaXn1oj2nI4ZM+ZVXV8hPbdpIoYsp02bNkTJYVqwrabXVQH0w8s+rpb8tLvvvvviMN40EAikC9XN453xKTvxJ5988nofbJVFDulMIrsHOqS55TGHe1Uiw8/hiYOZn0oRdaLmzJnjj/J7RgWTq6/j4w/uzw/me2R8/vnn77ibiqC0Dukll1xyBA5pVlaW63m03kfr2RP0Os3t3bt3e9bd97elFeYulcK71wLWW4tjp3i6ghAtBMQTx96mpyoAHOm5L774Yut0Tczfvn37C3BIiZsVVMPiDJmZmbNwtP1t1QriPXz48B5KhmucWM80RBsElUVU7vRQS0ck+njuRx99NODmm2+mpzwQCATKjYsvvpjZaXar78vC/PnzJ1Z1p2hPdkh5G+2TWf3BWVO6cqNf00PEsXPOif2vDN2+Zs2aef72Qqlfv35dxse5m4qgtA5pcg9ptHeP18yDBw/udcstt1TI1/MPP/zw2ZLfJNIiOSWW50T5o6/mbRgBROXL+ejrcnrv7Hd6WeVsr3niiSca+ceVG3xspbBdV2HUMTJDZU61iF933XUn+tuqDY8//ngTdAR9MANEmmjE2HjZygZdIU7EJ7rYBKxatWqBGjntfHICgUCgzLz11ltdZF7i1olTFvANqPeYLcYHXyXZgx3SnD3GIeVr64ULF07csGGDc0rozYu+qsVRMueEjFTluVXXj/e3F0fNyZMnv+tuLgKUubxe2ZvDt2TJkpkV0WJjqMLUqVP7y3GYo7gkvDfDZElvMwUXWO/f4mmFg99wQKOyB/td1+Od5i5btmxS06ZNdxurW1YWL148QWEnxhIRF4sHzpI3WvFOnTrd4G+pDsQmTZr0OvrqEiJw+JF71PGONgIqE/I+2lsRGRZD+YjPnj177Omnn36QT1sgEAiUGjV8V2Lby6OH1HdaxPv06VOqucQritBDWg3o27fvPUoTr7Zd4qK9RigskHH+OL5mzZq5/tZUyPjyyy/5urxISuuQsjY7DikOk716tR6mRYsWTfOXpQUc+d69e18jR36BCvV3XZ0C54JCitySCrz7aCn/MB+GPyQ7odxnziuY04QzpfMEmDthwoQBF1xwwVGKSmHDJVLmgw8+eIwweQb5zPMtThRe31MbHzJkyLO6vMqPI2V4gxoIbgA7EWdIRHJPAPkTdUwrk2heo8fElzyAaDzXrVu3CJ33yQwEAoESc9NNN50rc5IYUlZWzLYuW7ZsJisB+sdUOfZkhxR/xCez+kKPy/r165eYM0fPnSkplaT10HiHKJ6ZmTnT35oS9FCOHz/+LRdIESBQ75CWyNkxh9QH4zAlmzt37iR/WblCmjp06HBuVlYWDg9OnPMmkBFOvf9anlPOGZWDt13bVv02fdCgQZ3eeOONjpLzAv28m0Hg/uRXyBR0nEHvEDo4x8dlKlQ5clCWDB48+B9l7Ql++OGHMVDOIbVnWWMEPaAAk46ZM2eO0+VV+ms+ZnqQPmdK9tuRv+k28D86HXVEo79XFjj/NDai+QzIng3doGwq/oz13f7QQw9d6pMbCAQCJWL06NGv5puX3fpGSk2kHos3b968yk5ftyc7pCwS5JNZbcl47bXXHlB6nFZGM4cK0DIt8up2a7NmzU7196ZKhhzSQS6AIkCgZXVIKRTecXbO07x586bokjL3Hkaoyavy2bNn85GWc0Tt9S/7ZJQmCrxzIEaNGtW9UaNG9GY6eM3vv8LH4+fjsPybBOHhdCYbC/IBh9XyBUgz4ctBnfXoo49eVFrHlLlnFZb7Us0cNHu+7ZXGDXoO44bLU6blCvmzZMmSaUSbOFuDCjmZg23wW3LPdGWCnH1+urLI/3YMxNXiSz60bduW8hKmhwoEAilDHaH6xRlGGujYnPIAe0WDWXVdHz2mStql4JBWYU455ZRDVq9ePZcEWZc7GWTOlTl3/hV4vH379iztWVJFy/jss89K8pV9iRzSK6+88hAVhO3E25TMHI/58+dP9ZeVlVjDhg0zRo4cyWvtHMllnckGTHbRcwKHKPebb74Zcdttt/GVdEFOXC3WQGdFK67lHgyEOYCkh/8Nc1iSHSuu0Tk82twvv/xyUGkm+2eCZMXfzTfFc5BnsnOkZ2yXbqzxt1Q5JOeT5YxOIQ1A/C1vDJMte34zY0zeRdNt54HrkDEb8rAwBAdxdFfnctnbMdfZtYTJxv3sDX7HwTQZG5Hw3THlL5oO0wnebDz88MO/9ckPBAKBYnnkkUeayHy4j26xL9g6sz/RBrrZIewTRN/eRa+z+ohwuEf2aat/VJVj2bJlvJmMdlztlpai4DqTE+m0+6K2uzhsmkGeb3JNfitWGhSHaj/tU4yphJQWp5hWybE3QUfOxz/55JNXS/kFXbV2SBmL2LNnzyYKE01yTqMLXOAkmILZtE26brsUbB3jSjt27JjSa1UmtG3duvW5S5cunaogchXmZhsHS7pQXvaWLoOezGjPLKtqbc5f0z/3448/7oET7R9RLMx3qWcuIRzynOeZQQKOJd8c6Ua2v6VKwVhar2dxZMcX9AZDKAD9MD03SKfBdZZmkzlIxniD+smtTb9VYWzWfoNknbl8+fKp33777SgaHjJ2E/XsedKLLG3rZKA3cw/3SiecR0keMpOF5WU0b4kbRp3yZ78XhJVP4O1Dy5YtT/JiCAQCgSIZM2ZMYqEabA42z2yd2Razk9H6JdoojjbY7ThyLn7rrbeW9E1qhSAbPU/pzVVj3s0uIPvrEkXd5jc6E2yzczmy3xtU366TnFwFEZWb1dVFYW/qonImDIXLjDybI89k0v7dnp3KpiCrt0Pqu+2dN0WlCAjLBGZIWAg+R45fab/qrrYO6V133XXS4sWLmTg4V2FuxQFk7KYpF1jBBf1G6yv3008/5cOfEiOnsH7fvn1bKQynYMoX9yrf0gX8jxNseVYQ3gEjYjkvvPDCLT74IsF5VSGdx43IL/pM8IVPu/h2f0uVAYd+ypQp7xA/4oqMokbC9IG8iuYXoDekjcUIovqjMDAK27XpcGvmF1988fKAAQNuY87d008/PVrwMyhL3hgkGgDE6cYbbzxZ8r/z888/fzU7O3sJ4Sn477x8j8XP4mK6zHn+B/7nmI30RY3/nDlzxv7qV78KHzoFAoEioYNFNjDhWZodMbuIk2a2BqIOqdknNq4xLAyrF+VsbZ46deo7/pFViokTJ76huoEOg2ztV2rLVF2aReeCtuXaVmrjfzaOObdc12dxnbY1a9euXbRgwYJpkoMTmtnvojBHP0l28UWLFk3SuWz/rDWRzeKQyrZy7ty5w6rrHOGO22+//RQEYr1HEKnkosQ/+OCD53RLaccNltQhLRHpcEgvueSSuspgVvPJIV6EhSIZPAdZUYilaK71pNO5X3311ZArrriizOM45BzWkxPD3K2s0e/ek/gPWjh0cEw62VD25LzDsMhxzVb+UuBWtmnTpsgWKw6pnKZF3EuY0WcRPvIVCKHKrWn//PPPu1kiiHfUgNKAsB7sqDHl2PTFZGjg6PPBmX7L1n7sP//5Twbol6iRVAgZlLlp06bxMQGZpajs7psi84ixcv+Tr5wjD9iA/4mnof9zBg8e3FXPKI94BgKBPZTOnTvfJpPhbCV2xOoNs0XUG1F7CCNHjhy7atUqZ0ij9/g6IVFXmO1VnePqCTlIVbGRXC428pRTTjni1VdffU51TGKJ9VRBTtzD8uC8mVRwxKlMK/KV5G1oVSQ2efJk121PpQ0oGT0vdswmRcuRouZcdNFFBS4JmiKV5pDSivGXpQLjRBsMGzass8Li6+ytVvBQIMJEPmz2HCDevKpt3Lhx4oOl8oKvxb/88ss39BhKvLMYFicgLsTNDANgHMjTaBzNYR49enT/P/7xjwWuN0yvn1pablUEM1ZG1CFF1v6WKoGfh5ZxvS6uxD3qrCEP2wxd765j49jIzMxcqV2uHNG05KfBIhQzZ858Q3mZLUOfaARYfnKMvIkb+cCeLZoGjrkO/PW5d955Z4UsABEIBKonzM0tO+8qEewGdsTqD/a+3nf/+zGj8UsvvfS3qhffkQ1yP1jDOHpfFF9HxTt27HiVf+weCas/yj5/VyEXAXbdfAeTl5zSdT6oHzZ405JHQpAoEIIyRbSKUAq7fcqUKUP8baWlqjukMVopzz///G184KUw+GLd3Q84NxYu8BxTLBw9KeU//IS0aemdohv+gQceOAOnV48ng9yX/WyGpZe4Rh1W/ufVNedkhDjlWq6DBw/u7FtmCXjli0Oq9H1vbjorQNKP7Qpzg7+lSvDtt9+6tZh9+hyWP0bUeQPSg45HoSdZ57JlRCvMqWNIiIzScj03IXDiRuuZzdJgcY3mC7+RJq5nr/8Z3rGGoQI++EAgEEhwzjnn1JfpYCnqfCMisC1mV9ibDwDYIF5P69YMNXav5xU35+36qA2N2legHpk6deqQ6v6hTVG89tprHZXU3SuSYsCZZ4EcyZaOrBJNoVnZpO3125lnnnmGZBPT5v6XYtX40Y9+VCMjI7/XNxaLuU1Ktatv375d3MmKIc/vywWlj/CKlGPr1q3PHjp06Jjbb7/92dq1ax8lOdQ69NBD3W9qITq5sKkwunN77bVXjX322ccd77333rW17e3+Kee4G7Nnz97y1FNPfXH++ef/Sc5vSzmEa/fdd99d3z1WD87LI601fvzjH7u9DEYNGQj3//7771+jZs2aNerUqVNDBSEmxysmJ/4BNTSWd+3atakcGPdaRU51XeV/bTk2yvp8kREWG2kG/bZLYW9y/1QB/v73v//2uOOOO1uF26UPiK/y0eUZMuA39Do5Tfa/DDByWaikLVa5+MkjjzzysfuhAnj22WdnS5cOl+F+W/q1jHPImryNyt3yl3JKfDlWfF0auIa99CKmdNdXxcFKWmV6/RMIBPY8WrZs+Xf2qj/c/4BtwT5iV8yWGLVq1eIDqPd0GBs+fPjkdevWreI89ge41zBbRTig32LHHnvsmWeddVZZ3q5WabDBSu/OLVu2+DOFI0fU7amTDzjgAGSboXo5dB7AjBkzXpeztQZvnV40QwJ2vUuginy7rlnubykLsRL0kF7k70mZInpI44zR0CUFOqRXXXXVMZ9//jnzo/JVm/ys/FYfMqFX0SAs+41X4dYSZK/nMsVPjlqc0yvodWmMuUzHjRvXR1Fwz472lBo674/yUaFxe2TEMenQnkTFv/rqq/fvuOOO3/7tb3+7iEtJV1SOyMPCo0d41apVc3xcKhV6eJX25dJRp7DE07D4ko7oeSBNJg9Yu3btvJkzZ/bywVYazFMrPZrjo7VbvC0/0ENLm+khWHqysrIYurCBOW59sIFAIOCQrVxpQ/TMpqiad/vkOoNePOrFa6+99jR/e41p06a9z29mm2xPvWLgT1h9qTBzevbs2Vy3FlgHV3defvnlTiQzmv7iQK4m69WrVzOnd0Cy2Cqh5KKM5shFK0ApLrt4t27dbtPlZVWmCnFICYP0kNkUCFXYvHqfud9+++229rdabHX5AESXu9ffyQ4LlTtOebTCB/6PysoKtAcN4xXFu2Ucb5syzZo1OzEzM5P15xXl/BWJiB9pj76yNuU3zHnhWm88cOh0WZzxwji57reCUGFaPnHixNd9FCqVt956yy3oEJ3eqShIN5s58D5/c6uCM2q88847vAJyGUQ+2DCEZF0sDH9dfMSIEXyEGAgEAo7GjRufZK/crc4zuxKtO4C6g9+SO6Suuuqq0/QzdYW7LrketM4sMFsk+zxLt1brD24KQ3VQF6UzpS+akK/JzeS+YsWKKtG5kyrpalUwfjQmMnitad309roe/HHe+PHjB7Pnn6oO3ea8miYt7H/84x/XWrly5VJV6mv5nXGePXr0uG/06NFzGzVqdNu6desypCAxXo/yOl7XuXBIO698dX+eCuo2FdJNum4H/yMrKZPrfkd2oHDotievYieccMJvP/roo+WjRo1Ku0Pw0ksvfXPkkUf++pFHHrlEjuJ8xVu2Ydc20k78QQ6ne70iR929xifeKhjuN9LC0APdV1vXEX9e8xZpOPbdd99633777UT/b6XBuKRf/OIXf9BhjNcfqUC6yVtLv/Jv5+zZsz+49tpr73cnqgBPPPFEj7Fjx/bVYR56LL1y58nH4iB/eR2kvI797//+70UNGzbcrSEWCAR+uFx22WXX7r///q6zBNsC1GWAXaSeMNvobUme6srX+NmdFN98881i1ZPrVR+6/7E3qnMS4fC/QXgitt9++x2mZ6ftA9FANeevf/3rEaro8r9wifSe4cEDrR6dp5cmx99SVlLuIb3rrrsu8PekjPWQWs8XLTZrqbHuOtMz/P3vf7980aJF0+jh0+/5zcAkrHXop8FCMDkDBgxopZblsX369LlTTkEWXeyKpxMaz4m+Lvf3OfmRFh3mysFgZau0c/rppx/03nvv/YPX6Xp+tqWf/LU4RvOaFjHxN2ix8TsbemBbFK4RuTfffPPJ/rGVRtu2bc+XYUx0jSbHtSCi6ZV8snXP9jvuuKO0c+umDb7Az8zMZLUpN3Ez2L4o7Bp6vUV88ODBnXyQgUDgBwwNeNVdbjYPq+fAXt8DdYLZEF9n5FL3+SAcfDD5n//85y39lnhNzd7XDbvBOX8+PnDgwLY+iD2KH1oPaVr497//fYEUz80pFq3IOWbzShlfsGDBeH9LWakQh9QH4+LPqkm+gGUPGTLkdRwQ/3MCfsdxswKq56MtbExsP6BJkyZHR78QZGaCKVOm9NfvObzKMEUkHIPJ1Q1W4xFxnMTrrruuQnqrmCZKrdhhem6uHOTlRAB49RuNJwUDOeG8WCGx/E/eDH9/btKk8JVBbM6cOcPJWyJkTnQq+KEo3JPz2muvtVJYVXJQ+YMPPniuopmTPH1XcdAYAuX9ZuVtmFJkzyZdb9ACexi33HLL2TILztBbZwWYvaAuwL5H6gJWu1tS0Iwd999/fyNd4r41iGI2OHqecMGPldzjXtu/+eabXX9IDmn+Z2vlzCeffPLYmWee2XqfffapJwG5V8+SjftNlZ/rzte5vFdfffXupk2b9tTpMr+yxyE955xzipyTTHHY9fe///2SZ599drQ/lRKXXnppg/fff3/RXnvtVUuZnniVzmsHXserUGxTWmvzmwqgSyuvtO2rQGSgdG9RumNyIr9Uurv26dNn5MqVKwt8T3rDDTcc+/DDD3c98cQTWRY0pntjPIsvF5GfCrb7OpHw+V/syBDDhg3rrbQ9OmLEiPWcTCf33HPP2R06dHhjv/32O0JO2Kb999+/PnFRQXDysS/0STtyKeBVy/cgPcuWLfv6yCOP/B9/qlLAIf7iiy82SM417ZURcbN8LwxLl9K8Y8uWLcsOOOCA49yJKsqiRYvePfDAA8+UrjZIzqPC4NU+uq0GWY2DDjooT42qX6gV/63/ubqAo+VsDnPmniyOOuqo4w899NDDlMdOCDQw1fhbtnjx4m+XLFmyVMc7J02aVGVmfyhnnDzQe5XnmsyKccQRRxyvcnh0vXr1DlZ+18a+qNG5bv369WtVRhdLdxZLJmtnzpy5RXaMz3vLbMOrK3QkqKzXP+GEE05SeTpMunRM/fr1D+c33pgtXbp08bp165ZNmzZtxty5c7dJp/I/h96DGDNmzIDf/va3TWT7amErGdZl9pD/Ga5G/UXdTx2p+itv7NixPc8//3z3VX4yupdvDRjSVpO6LhqWv9/9T31DmFLPXbfffvv/692799fuhz0EOaTdr7rqqttkm4vt2EBGbMgDHwF7rrL5zWGHHfYLf8kPkzlz5gySQLbisWsvGSV6vxKeu/7fzqoy/pYyk2oPaWm+VMchVeHYri3RIoPo63R6mvyrzAS0Dullk0PDTTlDhw59zAeZEl27dm20atWqaXJGGf7g5gY1knse1ULkkA+osl9//fX2FTVXZJcuXZoojfSGk8EuQsjI8tuQDPxRPsTZNtLh0xJXAezsg640nnjiicsVF5cAk3lyegqC/PbX5T711FM0Jqo0DK1RXF0vqelScZBGQ7LZMHLkyH4+uCqNrVbCUquDBg3qtGLFillKApnFRuKZY3WDypp177hzbNgNwfkc2bYxyttmfLiYH3K1xPV8kobHH3/8BjnaQ9SoXEkapQe8zkmkXRu6Qfqjw5B0yp3bzkcszDSiBtxbbdq0aVgd5VJCW8niJnU6dep0vZzLcZIFcslVWcAGOl2RrctBNsiMY51L6BHXis2jR4/u06JFi9NwZn241Rbe8pF+lMLsvA5dPYB9B3tLCPSg6nzOgw8+eJ4P4ntQznQpSuZ8Bu63sKI9sMDbORGXLdrjVpLDIVX6y9pD+oN+0xFTC3CUZOEkY4KxvSksTlajRo3K7TVzOh1Sv1KPUwoy3dJCIbEKmnTZeVCL2AxQzrBhw/5FGD64EsHYzZdffvlOOQ1uhR9VHCz16Z7BMxk6YDIFfqNizczMnCln8YaKcEwZk/jee+91WbJkiTnPzhhFHehoHA0rQLaJ3FtuuYVGSqUVIIzr7NmzR5B3xI90pArGU/mzTuleVFENgrKSlZU1zb6MTQVv/B3SNV67rSxLpcoyuGpMTVdY2WpkbShoo8HDpkdS0W+VLm2VnBd8/PHHLXwwRUIv6BtvvNFO+ZKle8nQfKstrAyTd1E4p2e7vRl5/vfQOFzDjBdPPvnkDXJ2C1yZrCpC43rAgAH3LFiwYJLSYc74bg4DkGbKLGXAoOFSUMMbdL+TK5Ocf/LJJwPatm170bHHHluhzqka72PJF3TE69M6xStbdjlb/9PYYBA+M324xgV6tH79+gXLly8fn8pyzKSJleh0v3PapZPbZecT8kBeRW3IFHsSKUNxHS9/7rnnmjKhvH9MtYNGDWlxCfJlJZrmaNniGJ1SXTGlqKFZHTp0uIbLuSdaBgEZgp0zeUr35u5p09EFh7Ts1JSy0XJ0kjHBsDeBsdf/leWQNvS3pIw5pMkFADDQ0QKHI6oCxAW5cgon6XmsU17mScQxWNOmTXtX4RKJuH3gBMiWQptcqShe27/88sthzZo1K3KN+XIio3Xr1idPmjTpZR6tbbce3eRWLZg+2CbiVcCgJFYYw9mHgirgwlA6cgYNGsTY0WpB+/btL1C03VRcqaBK3+2tDCiP111yySVH+OBKhfR3qzbm+aURV+gGeh479Cv322+/HeaDKBA5yrUGDx78GE6JrrdwdtM526g8qeiiZdngHs5Txqyi5RxQ1uWYDlej8R7/2CoHjSN6iFkiGIdR0XaZjV5jMyz9UdlYOjkuCH5DJnaNySMiP1brmdW9e/fmFTUmXI2rucpDN4jb8sxQHOnFdE4zecZ1nNP/bEV+XHvrrbeeu3DhwokKz91PmtUQ280uUB4KkxfnTF4G10fsY1z1SLV1TNWAH+dl870yRNrVePT/JexGXPVEkW9WaOTqWvfBRLQeAeo7sDqFcgl61vYWLVqc6IPYIwgOadmpLWeJ12FxCiwFMVpwzWmSsmXx6sPfU1ZiEyZMYAL6IlGGlckh9cG4r93NAJM2y3x6x7Sjl2CeKvqrkpfOLA/atGlzwYwZM0boObkqkPQCJJ5vYBCi5xjHxCsQKmgFkXblvOeee86VwV6gR1MJOOtkBSUZ4oph4XcqCRnmzLL0uJWVtm3bNsyPVr5RJV6Fxb0Qcqvba0vinKxDRYHuU459RRCXM1bqL1zJa4XBa87varFisEpNDtY7CqLAMtaxY8crdI1zIBYvXsz16QZHZwMre/koVAVi9IiqsZ5oJLqYFgI6UJCuk9/YcfKccmFlwjazhVHHgTLNPSK+dOnS6czpm+63BnKA5yk+To+s/AJxtD0bvxFnH2/qqXWy1QXWRR999FEvc2BdIGlE8qdhtq5x48bVZgoj3g6oPLoPmIvD6wN2IzsFxzHGspeqD9ZY/hWH8jN37ty5ZV2GvEpRTg7pHvexV0mouWbNmumShRv/gZBMEc0YAL0W5dhyrlCHlDSQJgwwLULQ/3jaua+++mq7U089tdjXP2Wld+/erSTneTxT8dhgrUQjWoiJL69Wdd26nj17tqkoh2nYsGGdeTyyoZVMnKyRwrE5omAFaN26dcuHDx/ep7JeeTP9lqKx21goX3EVi67NVaU4vbDKrSrCEAVmu5COFGv0kIPJgvzyeRcfPXr0ywqqVEaPRpLCQEcIq0h4Hm8kAF3+5ptvRiiI3fQE2Q8ZMuRfuiR3+fLlWVY+6dFKN9JtGqOZAwYMaMdQGx+lSuPJJ59sqnK3XOXsu9cpKUDeUk6Te7sM8oHzVjZs8/rgynfUHvHbqlWrFs2cOXMYq9cpauloFMeKc0gNi7fpnOSz5te//vVuQ6rQo6+//nqM4k3DukIgTr5XkDHoTRWNKt+z1a1btxaKr0S6u4wLwjqjZOMX4Mj6IArl2WefbaXLS9RYpjOoKpS98iI4pGUnIysra6qUz3VjICRAQOaIeMp1ep9UHVKWsPS3pIw5pKTBKjiwYxRm4sSJ7zBWTZeXe69oYfB6Z8SIEV1UOWcpfrLB3xnhqMFNIr5o0aLp7du3v0ZGId1xjd11111nrl+/3r0mRH5RxwCHlIoPzFj5NMTlcFfGK9CakyZNcku9Egkr1KmiuG+XM92FcPKDqx7069evhXSlWKOHPpmOmW5Jz+iBnB6dvqwklMQhNScHvUHWDA3ywThwIlQO3RyGKpsJQxMd3pJu1EhkF2ccso9WZRAbN27c68RDcsovWCXE7AdlgLLJhu0m/zkXseO7wT3YRfaEwbXsDeVFpmwPH/yVe4OzpA6pXSMbtEa2lPkwnQNIY3j69OmJ7yAqiqRGU+5zzz13p6JTpW0JwySIrNnvovDyjquu7q9bi3WSqJ+4TWEry1LLCuXluq5du17ug6j2BIe07NSUYZhEtzwCsUJPZWJGyp/LVWVUbj1JqTqkrVq1KvTLvsKI9pASf9JBGsh0FchFd999d5PKfM2sZzeQ4s0iXgaKSfySKwTGReo6tBbDMMi/HkprS5x8XrZs2VSeSRyIk8XV4ok8bawRDofObb355pvP9EFUGIzlcpEQ0cZHVIaFQZw7duxY7YzhjTfeeJTyIyWHlLyyY9D/fEWcU9rGZUkcUjO25vQxH64PBiei3uTJkxlH7i7CCTUHljjbvekEvQV0WZXo1uXLl0+raLvAK3o+LlQ0Er38ahCmlH4ah+Z4FgTyTJYlz6Cc8LYI+N10BDjPRvkhfF3v3iS9+OKLOFvlKpviHFLOmf22PSj+6+SQ8goZJznjvffe66HT7g2f2aSoLUgXPI/NxmmLOB/NucRVQegQURxdD6bJsii4Rtt2NUhS/rBY9StvAZkBIz+QYpD9zlq4cGFlNgbLlXJwSPfYZVVTpZYUYrgE45pM1gNGQTNh+XO5TDvj7ykzFeGQRuNvBYSVmvxllUlGu3bt/kL6iCMbymlG1yoJ8sCgUtf/KHruyJEjn6V3yYeVFgh/7ty5bioP4ucn9XeYMUOmxNniyWTHFV2h67F8ye2eb4Wa+KZicFWZZ7PYgQ+q2oAzSaXsk1EoyMFkYvLwFTWNy1K9JiupQ2qv7HV9DmNI69evz/CTmoMGDerOJXz1jA4BjS8rpxbvdGIOsKWF8sgQjorSYT4SlfOHtx6nfBMf67mKlv1UIA3cw4bckWlRzioU5LAaJn8//pf/N3fv3r1ZOX6JX+wre4u/6Yc/7750P/PMM92Kao888gjT2GVLdxIBVMRwDyhIdrKBC4qaHqkyeemll9qj4ybP4iB9kmVmSd7MvfLKK//QrYzPzg+kCAhfdTP5tv1Xv/pVAx9EteaH5pCmo2dsl1o13zIJvATkT7l1vf1RPpJVjV/+8pdn+38rklJP4KzK0O1JCxP0Qq1atSrkC9JiyKhXr15txSkmhXST0RM/NuJq8c3IyHATFKvQMqk5/9fStRlq6V4/duzYacyvmK7xr7Nnz97SunXrxnLgR6IaDRo0cBPmg+2ZyJdj4omsDz744GOaN29eYUvCyXFwTrnFh3iAybM4VOFtmzFjRrWbPH3q1Kk7VFGs8P8WChMumxzYy2kxGcVUyZTq61blccrlEd3db7/93LEM7rZ999239vr16zc98MADl15zzTWtN2zYsFMOqrMt2dnZNQ488EA3ib+cs5Qm/S8rLAbBcylvcoiQT4bicOz//d//TfOXpA3edKjynqayTYbE9t9/fxcfJihftWpVQpeLAvnKGXP5Shq4h418F3mE5Y/doiByfhP3kF6uRc7oBr9TbgzKFLKpU6dODTUauLdmmzZt+mn7i7+kPChSlywtpsPECV1RPHdq23H88ccf9PDDDz+r61gQI4M0QSplvzyQ0+XiJ912/2OnsYH33ntvv4r4LqEkKF51/vSnP90qGWUgH5NVUUimeZmZmTNUF6Rc5gcPHvyKwt5hC60UBXm5zz77ZEh/85o2bVrhb9cCZSctDiljyjhASW3FBpTWDIB3kGJqxVyoy8rDe0/rK2ejbt38xrylSYq/a+vWrVXBAWHlDycD5JxsQE3mZvBUaN158oc8USVR/5BDDjn2/vvv7//CCy+8yoTN7oJyhhWkunXrdvf8+fM/ldHPIy6SX8IBNMeZiow4Kr6xa6+99sFLLrmkQj7CUoXkBtojL+JkcuTYKuIiyFNa1uJ4+/+rE3ly2payz/+3eJAH+kMlD7/4xS/KbZGLwjCnksaK9KOunl2HHjY5pF2kM7vUKHPjEsk3rjW9wklFz9INeouNoJzhrOGUKR61cSz8W4i0jAekl7ljx45vHHDAAYfJYXer45F+4sGzafwtW7bMX104OPuSK+VSPtHOLXI01+v+teyVlo3+f443yUHIk93I8/e451F+o+DYEhc2yhS6QnxoKCiujA+MXXfddY906tSpPJzSYgtochn2ZTymtNRVGjIefPDBFrqGVancinykaeXKlS5PiXe6QZY47dQvaiAmViNCjySje3VYIfVcKlx++eUnqVwdYXlOHqdA3ocffsj4Ube8YCoMHTp08dy5cyf7f4sE/SLfFKdait+96X7rV42oMnpTHGmJ6IoVK2ZrJ93IX2bTlJX/wVdisaOPPpr5MVNWznKkROmmxcUeg4ZxAHpeBD0gpZrwvpypKefANauJoxleKgEqJf2Gk5SHgSPeVNjmdPm8cK1yVdqx008//dI+ffpMGjdu3MtXXXVVuQ2pMF566aVvZFxvX7t27Xz+x+jT+kVHiDeGH53hmPjq91qtWrXq5G5OMz/72c/cF8DIh8rUQFapoLhv1C6/e6OaoYpwrT8skqgsrFxLd3YcfvjhP3f/pBF0V40ZaxjG5JjG1IB6S2XwGDlLNempQ6eJIzpl5QB8eTUozwVtZYLnojvorRwu1xtInH7605+efOGFF952zjnnuNfC5c2dd97Z8YQTTmAt8ZiVZ8oRx5buI44osiiT9l1yoldNnTr17Weeeabl1Vdf/TPde+C+++7L0qEHymE7kP1ll1126I033nh6z549b58xY8ZHSh86n6fysgN9MJ1A/mzIg/KMTFg6kkYMICs5XTE5NUc1bdr0kdIO+SgJprvoiMUTFLe6isfJzZs3f0zpUVJ21VDjxl3zk5/8xDWAkvQnbdCzTWOG56O/OKbKuxN///vf36afy6yj5YX04ErVLVvMISV/iwMdefnll0f6f1Pm22+/nay8K9ZPMHnRyDjyyCPPPOWUUyqkIyPNlCXPq4y+VCp8ba5Kyn3aunnz5sR4BlDh9kf5A5D9LWWGuTllTBLjWWT4dhv3RxxkpDfI6DBRfYkcUj4UkJHIImwL09K0YMGCtL+OS4Wnn376FkXHDSCR08zOyUDyXzdkyJD+bdq0uUJO4BIZ2d0Gk3GNDIs71m9u72Gy5qyBAwc+Rg+Mf0x5kdGhQ4fE8pzEIYqcI7e386tXr1505ZVXpn3CfKW1FfnsHuoxWZpeFUH8888/f4NXWT646kTsrbfe6kQa8pNSMCYD0xdAZySjrTNnzhzlwyoRjK9UMCmNIU0F4kNYlm+gcs+OtEmlcjfrt3UqF0vEBNmNYfPmzRsrnVukymyJruFG7Eiu7AneCffuBuFhx+wZS5cudfticJOfK8nl2gnw+OOPNyHsVOSHLTb40MkTX7FixbS+ffs2U3CxEs6WUFv5d8Rrr732AHJVWK7ALl+e/10gemL2HpmZ/hDXaJnHRikvJvkwS0vGypUr55p9i4YftWumHxYX/ldDfPOaNWvcamXEV9nufovqEOFxH7/53wnUbeiKfnNLhBJeNGzCoK6w8/ZbNH6Ex+/FEJ82bdoAn9ZKR/Jy02GRHtLIPpqmyIdZ7ndtFLgJurXEdQljoxWMgs8PH70y/ZW9dvsojCMX8VGjRnX0QVRb3nzzza7Sn9KOIaVsM4a0Ws36kg4Yx8FSbU44KBKFLmoIOJbwctq3b18uXyVPmTKFVYwSRtAyhn2koOSy3rIuL1GlIKPbgHuJO/GGKuiQuvngiBOFlLgSRxnb7C5dujCFklPKAQMG4HggEAbzJ/LEKisMieWbJ75s2bI5OLzcX15Q8X322Wf9CV+OgHsQlRbx8Q6Ei7+Xd3zEiBG86kknscGDB7fVs501Mz013bH/iyD+n//8hwqjYrpSyhnmziQN+UkpmqhD6stEzuzZs8f7oEpEeTqklHU2c4KIm8/P7XKSxvXq1asJMwr4RxcIr9UffPDBc2fNmvUq90kHN8tZZZ1u+7rfPcP0QWXD7c0eFIV0aTvzFPtHlRm+cla65iB//4hioWypgUdcuCd33Lhx3bFvPshSw4dxEydOHECYPIcyLQeRw+99FEReIy+TIcdyMDJL88FpBBzSOcob9/yIzU/UBcBxsq7xfLN/ZnuA6/gwDhRXZzO1sWfN/zUbNmyYnpmZOU55MEFO0EzZ3UwatApjg7/eQTqj6QVsLM8yWUTjWxhMFH/KKadU+tKY999//8WKLzLwMcuXYTR9Jk/vjHKY27t371LNGIBu8bW9npFwzKyMmy2yOkv1ne23S8/nMPuGD6ZaEhzSckIGZpqUJjEBIArjhZQQGgZajmR5rKyQIWfg9agR4Bk4wTzXnidjse6uu+66yN+TMhdddNEhur2qO6S3KU6uNGLoSLc3EPFOnTrR+5GASvedd95xXyWzWSszaozNEIPkiHVh0u8lTZo0KbchCvQ8Swc2S09cBpkj7XsgnJG2ljAG0N+WLmIjR478l2ToLKnls+mO7YsgPmbMmF4Kp1oW/n//+9+tSUN+Uoom6pB64gsXLpzigyoR5d1Daj0z2AI5DEvmz5//7q233lqqV+WMQVM5ofePLntnW6yitfJvFWAJKPWMBMkMGTKkq8JzeRYtu4VhcffkvvzyyyxxW25vPySv+kOHDnWLYWhjLthoT2wCyhLyi+a5zuXOmTNnXBkcrpQc0qgNj8I1TBUG9LDNneum1wRWctog52bmhx9++I8HHnjgTOynf6aR6ODAuWdM7NSpU9/QfTRkZIrzVzWLxgPQHYtLKvpPWP/6178qfVo53ioQHeJs8U52DC2tOI7+mlJPDSeYiqu7wknMgBLVd8K3OiPikLLLZTlrH0a1JDik5YQUqLWUdLcVhExYpkzsmdbC31IWarJmNU4LCmubFRjbRLxv374l7sa/8MILDyMtUWNmFZIqvKn+skpFDmmr7Oxs97oZOUfT7CdY/t7HY8zzOX36dIyLq0AwJtbyBAo5lRjhRPIxrkbEcB9EmXn77beZ1oPVphKyNQcZIs/f3KNHjxb+tnQQmzhxYj8cGZ5r+Uueg+luEcQ/+uij7oSTH1z1ItrDXhymCyYbEc/MzJzpgyoR5emQWnxwRKVDma+88spuDbHSwivDr7/+mmnlWK53O+UE/TA9ldF3++KwSkK2qsxjonGK0FUrr6k4xqbTcrgWfPLJJ10VTHkPxYHYiBEjaOwmPEIcvagDAeQ3W0SHIN6+fftGPpySwrRPxTqkwP9Jz01AQ9xkqjhvkKzm9OvXr2lpVrfDOWXNdgXl7CthUnZMFsTB9N7yphjictqxvd+z5RVITHq/zuLLHlmbPCP1hMOnFftQpiEZLVq0OI9wTM95puWrydD+N/nq2nWy6c/5IKolwSEtJ5iPUQLJ4XWNKa8ZCVMqr0j04DXxt5Wau++++0yFlcv4w6ysrN2MEM/nf29o4swd2rRp05S/ClaF5CYOL8iAVKEe0lamuMSNuLJXfHO6du3aWpcUVvlk3H///RfJmM/SrfQC0yPgCnXUuNBrwDlveHjNvvKZZ56hh6VM4JAob7bSC2sy5TnW0jb4nVdW/rZ0EPvqq6/e0KMUnfyxX+DTm9gXQfz999//lw+r2vHUU081Jw35SSma5F4QgeFjRZASU54OqX99zly8a9IxM8OAAQPaSA9y5GAlvB1sGpvpblFg97QxhjVbwZXJqZCuUVFtJS/MnqbCjBkz5so+lnW8ZrHoGYnlowHnHX2JliP+jzoWgnGSLHZQGtmUyCFlK6hM2/h1yTRr9uzZr0o/y/zKt3Xr1ufKftFZ4CKCLTUs75IduYLwacopoIe2wlBdcani4Hq/jah87TjJfueqcVimzgTSLFmtQ07JtsJkZ3lub/e0Z9L+DZUpr7ISHNJyguXX5FjwkYBklP/6POrMRRVWRnKMv63USOnqz5o1y/Vi5IeaP3bJjI49z/dqkGu5o0eP7udvLxJVbkdwPWFVZYdU0XHamDRmK965c2d6SIvsuTv33HMPYXybCjUWkpZoIoOixodjk6EM6/Jrr722zF8O67n3KDw+IiFcB4Y6Wqn4fCx+srvSE5s+fbpb6Qd9NX2xAp4C1dohlf4kPoorDtN9ZOPlUyUcUhFXeRylBmRaxvFi0wYOHNhWz3G2AKyXNBWs4pTMGDt/sQ+2VCiM7Soj7h08DbhU8DqdWxGLNzRr1uxExWuD4pkYEkQeU6ZNdmB1Ab/560q7YErKDilwLnkzVq9ePVeN0z4+3HLhsssuO2bNmjVzFPxuk7ybbKLPLww/5CI3HbOfpIq9rsdWmx2I1osGv1uaNm3atLw8dG78+PFuOdyo70Ackh1S2/vnsxgOy8JWS35oDmnaXi8uXrx4x9ChQx/WoZt6gClIbIoIpgKRUrlj+NnPfnaKDBhTQJUatWbXd+zY8f5PP/30Rf27S5mzS4qamL5HmePmImSON8FEe7Hzzz+/mX7fSs+Hu6gQdA0WtMpPoaA0uzianA3Jnh6HIvP6s88+W33jjTc+efnll58wYcKE12rXrp0h+W0hSKb0kDF0m03fImIHHHDAIbfeeit5XCZ69uz5gvJjy957752QMWlAR2RcEvOlitizzz5b5l7ZVLApg3guupMKijM3pa1MpZli4+3zwJVfw2QjQ1gZ07dFyVMDaX737t3v+uCDD9IyaSQ27R//+MfzU6dOHahKlu5YVxaitqwomAYJpOs7rr766tt1WCpdeeihhxqpbG5TGa0jp8/NA5pKHGT78qZMmfJ/quQW+1Npg+nd5IB9qXhtQkZZWVmuTCMzs8lAObPN262YHNK/ux9LBsqZsjx5HnpsusweWYq89evXz27Tps0d7odyYtiwYQufe+65u+WobUQPrNww7V2qmHzOE+5EBaPG40H/8z//wzcYienFpMu75acRSVeeGgozxowZk9K0ckXx1ltv0YGU5+XgZEi+IU/iwbHskPM1sFXksfZ51157LXmZjuEp1YXqWieVLyy5KaXJibYCZaBci14K5M75Vt9/ZezLpaeRQfHPP/98Cz2DT2LpeUmMswLrhaMV5b+apUmRS0uibdu2FxU08FoFsdAe0qo0hlRpy3/f5PGt2O1dunQp6pV9gbRr164JHzFZOAb5Z/kpecQ3bNjAVDZlJabW73MK0n35by1cA7mjO6Qlja/teWX/jp7lll+1fCa9/J8C8eHDhzMurzLHd5WaVMaQmkxsj1x8XsVtMYySUo49pLndunX7C72YPui0wWtcNW5XKs4J22Z2rDjMFun+NaV8lVhTejrcxotbWUkuM4XAG4YKq5xuvvnmY1WecqLlh/KEPaFMA3s7BslzndLCkIYSI8enyGmf2EefVRCS6/IbbrghXT1qGWoQvKo45FIHAvKAVPTHpwM700VhVbiTocaee4sS/VCN3klLA0TzGtDzzz//vLMPoqzElK9ujAPPiT5Lz0nUE2azLV4qp5ur2kpXqVJOPaQ/ZGf8O6gcFi5cOEpC+k5jPSY49igThx06dLjK31pmrrrqqmM++eQTnBwsU5yxQeZEknEYRSpBnu+NFxGKf/PNN+P52McH4+B1i5TbWQyuN4WH2bNnM7daZZPRqVMnNwbQ4mUVPJWmWualWX7TFf5kA24ytL2MU3k4pDXatGlzmoJzTn+0MokaO36TId+gy9NhjGMzZsx4V/LarfCbHE2uRRD/8MMPK6WiKA86d+6c0hjSqBwsn3SONdvn+qBKREkcUqvEDRsrJuJ8Be2DrAhiTz755PV6rmu8JJeRojDbofKz+e6772ZO5JISkxOwOdmhsbwgLtH4cN7LlsbeEh9GhaEG6yKeTQSKw+K9bt26RTfddBOLVJSI4hzSFGDYTXk5TwVCL6Oe4/SGDUc0Fd03VFeuy8rKmlq/fv2KnvSdhSgy9fzsqGyBfLM0kB7qBpO5jrMbN27sVsArD5jv2OpiGndWDngmcYjWF/YbHzm+8MIL1/sgqhVySMuyln14ZR+FV1y9evV6MCYkLHdOSuO613mdLuG5bnVWwZDwajzwwAMpjelMhcGDBy9U4b+jefPm/6tW6dt169bNs9cIPJ/ufbr+2RMXbcgidswxx5wh5Z0wfvz4Pr/5zW9O4nrFmTXid0nZE6+WSAfUqhpr2fMKpVx75tSYMCVOvEZPJ5L3Uhm6LeQHumL6kpwsVm669tprq+2YoEDpYbgNZVUVjfuflZBAurKzW7dupXnNW1ry3n333Y8Ul02yCW6pWGxKqmBDpOcZp5xySolfvaqhfZjsT6JQUF7AXmMmw+92zbRp095zBxVHhhp5I2Urd1h5Lgqzqfvuu2992eG0L0WbjByXZQMHDnzZ/5sW5s6du+3zzz8frDzBg3PDLQrLu4KQ7mDq66g+q9CGr/TuaJ6ruNY1fYrCOfKYPfWsXbN+/fql8+bNK7c6ZNiwYf1lB2ojO8o/8gOrl/EpDIvD/vvvf8SZZ555rQ6rZWfBD4m0Z9Brr732zbJly76QwjilRGlQWHNCDRn0mJSrngxYqVZ8KYwBAwbMvv322+/o0qXLzcuXL/8ao8N5G89FBYcyMzaSYxweCtY555zT7MMPPxzTp0+fB3R8keJWVw6Tu4c0mPHUviosFblLha9CHMd0MXXq1LXSE9Ysppsk4ZCSN2D/yyjW/PWvf+3GMbkTgR8MlDv0wHTCl2HG/C187733/uNOVhATJ05cr0bUa9JHGqvRMXMpofIaO/vssy/z/6bMhRdeeD1lwP/rZMHzrfKl7ETtKr/bbx9//DFfsFckuz799NMRspsp2UhzJpSvdc4666w/6LAih7/kZWZmfvHGG28s9P+nhZUrV25jLCR5QnrR6ZJA3lMXqd6pUPt3ww033IwjqOcnyp9BWtioE61e5Vh6uOuLL75476uvviq3Md29e/ceqrB3WKcScGxyxD6Y/nPOXxf7n//5n4sbNmy4JywlukeTdqWmAMopfUSHztGIGk/2mzZtcscYdClT7Pjjjz9bTmBpXjEXCs7OAw888NJ55533K1Ukg1VodklRt6xZs8a1sHCOUWScUs5t3749Q8pcUy2wBjfffHPHe+655zHFM2ZKTzrsOCcnZ4c7qFxkJ76rpMqDxYsXf3+kepr58ssvWSQhD4OXbPSi/6uBUNGVVaCKQIVHOQUqG2DJ1tmzZ1d4w1CVYw/ZgQwaqmbTioLrsBveEcn4+c9/ziv7Eunxb3/72z+xt/JAeFT+UaIOKfFi07m8Tz755Ct/usKYNm3aZNKaXJ4LgrRYw/Okk076rTsoGWVqlCuu47RLux6NHDnyU/bmgJN/dlwUyAZZSv/rqs5Ke90dRc7c9TybPDJdT9Yz6nAcVjCHdMiQIaxeV24y5a3rN99887Hi4epdZBKVHXpm8SOukbIRu+aaa8o0s0U1pEJ1pDyokAirRfgFX6ZKUZzB2LhxozuPwpgBQpG8MtVq3rz5o3fffXeJV1QqDpT5sssue/C66647bsqUKUMPPvhg6euuHWvXrk0YeJ2zr8h5hYNC19xvv/0OwmmlwKH8VITWElQaqkSmS46FOpAyDNVCMT/++OPRSsdO5BytwMzgYAD1e95RRx3FUIpyrzhMP8tAWe8PFAF6ENULHDz0/o033hjoT1UoDAvasmXLWulrSo1S9Bebt3nzZv6N6b7ap556av64gxTxr7ITXzmDOQa2p0KWXNyxgZ2TQ1rmL51LipyHjak2lin3xJsyfsghhzCGtCLLU97w4cM/8sdpxTeeSJurCHGaonpdGOSv8jbG5k9VCHxTccABBzDVVOK5pmtR7BzllE6f7du3b5w4ceJSd7IcGT169AB6YDj2z3LnIXqMLjHMh73q7B2XX37531W/l6i8BSqWClHsr776amPfvn07SzF2oEcYTAoh4OgBSkPvpBQoY9WqVTW7des2PPnjonJiB9OenHfeeTe2a9fuz0uWLPnqoIMOcoaPV/ZAr+26detqqBA6BWfsKPFmI97RwqgCUeE9iQWwU/Fd74/Liwp3rmSoV0kPEvJEJ6J7k7saDNV6feIqSlnzO+364husrjyiCzQcVf52DBw4MO3TGBXG8uXL58su1PROZpH4OtSlwRM77rjjSvQaUfaoltKemPoGos6MyShqo7hedgsnqMJt1bZt29wUfMqnlPVDcc2Qc1rr9NNPr9Cvg996661v/WHaYeiY8tApBPkV0Ykqx7XXXntTVJ+goPjakDaulR4yr/N76XhzoYbDf6QjrrKmHKDz9rbEygLjzHFWKXOc03V1jjzyyDMaNmzYwF0QqJJUWEvr/fffXzpkyBCW7dy1//77J5wMM6woFBUMTukRRxzB8mTbunbt+u7f//730ry6SYnOnTt/qFbThf/+979bygldoVN8pFCjbt26NQ488EBX8WVnZzundP367/w9e2WI0terV++QKrASRO2jjjqq2n/o88knn2yRPiRkmWwEzdCZIU8DaXeqAqXHKkEqGH/MHIc4EZWWb4sWLZrN3pzNoiDO2D0+xqCyhAYNGhzmDlIAO6NGM+PxnN22Rn2yo5vsLOiZ5pBWOLVr12YlNj7gSckZNgdD1+ftt99+lW1X08bixYu/piHDcXJ+pYLurRCdV6PgoF/96leXY3ttM5LjbXW53+e9+eabPdyJcmbkyJHr5eh+osPdZGBxs3JB76jh4xRr0qTJX9yJaoJkXB4+WrWp1yrMIWUsaZcuXZ5ftmwZ45jyMMgokLVscProLWWPQsk5rSPHtcFTTz01rGXLlmlzSqXYW+T0vqBnHf7VV199pOe7Vw30eBAXnGegt5Q4W0UCKLmc5xPFaf5UhcPUWr/+9a8PuvDCC6/Wv+WZn5WixBg56QV1aMLAJBk+l8Yq0Aj4HsTbH1Y7JOMqH3eVS7en3JluzJs370vtKk0XlixZMm/16tWL7WvfoiDONGKJvxrcnIqVpLf/hBNOqJebm5v4QMTsEQ5cMiYfQ9dVikMqWHOfceHF2iYbi4uDTVmS456uhmels2bNmmUSiUsfti4VvG30/1UMp5xyylF0uhBX4hm1y1E4F20Yqf5c/eyzz7rGWhrYNWfOnBE5OTlbrFeWZ+NLmCwpjyYvyhw+hRpzuxo1anSvuyBQJakwhxQmTZq0iZVUpCB0N25DeXzLxSkPCkXvJOeofPhdrZw6//jHP/qNGDGiXJdyK4hzzjnn2r/97W+/VCX3mSqKnVJi1iRzvxE3lDpqV/0r/tg777wzYfr06cMq2knS8+pIng+PHz9+7s9//vNKc4rLExmytdIFVtJyRoYK1xot3uhsq1WrVh0ZnHKvrJTXvAqlAnX/Y+xMP1OoT9GPCn8lWl5IzsXWiub8kEw2k5POxfR/2h0e3kxYHOzZCxYsYMnSSpP72LFjPzrkkEOOKqiSToZ4m+OKnYPDDz/8KHeQAmocq81eu56lnQazPTeqevxuzgG/q+Kml9L9Xxno2buU9mLLK2NIo3JUekvzyr5YPeYZ0ecgr4rQ3yjKn0RdQbpTgTpSsnTx1P3lbv8K4r777usoO+ieiS1kIx7J2DkaWpLtrq+//nq0/k2bf/H444/3lf7XNr1nT3mgjCEaiw97Oro4J/tRU2Vh58MPP3yu+/GHQ7Floqrwfc1KM/To3XPPPdffdddd/aQcMZQI+ICIV1k2sJ3X5VRApljZ2dmr5s6d++Ujjzxy08iRI1e7k2mkffv2599777391To8Qs/eSWXAeeJF7ymv9IkbBYFCqOvy5GhvfP/993v27t278yeffJLShw6lJKNPnz738PGXClotOWk7mJKDH5AdhZIKCOOBAVN8HrvzzjufcHeWABmirQqjltKZMCw4aeSR7ZVvK+rXr3+4/7nMKLwFkuUxW7duTXxcZmkCn9aMn/3sZ/vxkZo7WT7Epk6d+vJpp512vfLUfTRC3rK3yst0sRDyPvjggyf+9Kc/MaNEtePJJ5+84cEHH2QOxkIrEdMpkwv5gky05S1dunTGT3/60//nL02Zhg0bZsip266w3Re8RUE+8Eyv1+zz+vbte3fLli176udKMbqs0f3GG2/MU9wyitEPh8mQtCC3nj173iFb2Nv/XCSsfKT0sgAAZTJhf8gLCxf5EDblxeJDWZXdWv/iiy/21fkNuibhvRIHf8i+QBlGrtkNPSeqKwrazTftruVYz2Rmldqyo50Uv8QsJUXh5UI6djZt2vTnr7/+upumLxVWrlw5S42DY/XomiYXIEo6546BZ4DJhziLHbJn+QanAvj444/7/P73v79Fh27asFRlo2t3Kl15//u///vTGTNmpLUepK6eNWvWcsmlrraUHGCGuKmu3PXQQw9dKJvCa/W08JOf/KT2559/Pl4NupMlu5pWH6VAnupolsh+TMcV2ggpDW+99VaPK6+8soXSVmzjDP1gQ9dNHioT3xx22GG/1M8FluGAkKLXGzNmzIA1a9ZkSoAOOXX+yL2vdSsusCXBMgTxf//73yyFWSGwDKmeSURy161bRxwccoxYZi6xIsj275bXjK9atWreU0891cwHUa60bt36vAULFkySjHL1zNwdO3bstlKGDJbb2//a56jSa+dvLxFKGys17bbMCemO7strpSZD4S0gXPTB0gIck07FyeVFGnqjY5999lkvHmVpi8gwcVwEcTmknXxY1Q7pa1PSkJ+UgonKw0D/0UU5pKVaQheHlGBSkO9ueu73cTXMsAWFOtHpBodU8XArjKWCxd9fH3/22Wdb+KCK5bbbbjtZ97hnWdkw+xMt95yLlh3gHGVH2/bCNt2bU5ZNtmizys5WNj0yLvu9eePGjSt5PnYqFUyOin/OX//6V77sThkcUu7jfqXHhQPJsuAZ0fzS77o8t/iv0soRHFIezfMlO3bFQpwVT9KXwxLZPqi0IafyUj3LCTJZhoWB3Vb+Z+PM+mDSRWzgwIGP6ZEuYmazi8J0gk4P1R/ltnpUOsEhVdpKu1LTf1esWMEbpEqzjyWlUiK6ePHijQ888MAde++9d4aNC7PeMMnQtVwZkEyrkd95NS5B8/V7TMq086677uou4efcf//9aZ9XrFWrVn1/+ctf7vfhhx/+u379+nwx6lpVtD7o0bW40ZvrX1fEDjzwwGPuu+++fvPnz5/QrFmzE11AZaNWo0aNjpoyZcrLHTt2fIvVpGTE6JHJoIcZedEy3ZNAvsjVUAFzPR3SCddSP+SQQ8q9xadnkLd5yJNn8zwwnSyODOuSqYZI3sXG3XqZTC6GZJPOD82KRHGp1Ja/9KTCnk9PkD9M9IaYXtqePCpIV1FNbTW11SpsI/yybAyvkh7V1jFva2L8v//++zegWCn8/IiUAKWl2lSkFUiFyeTGG2+8Wzv3PHStOOTwUY/nzZo1a2Q5v70qiLxRo0a9y151YUr22dJQr169o373u9+VqLETqBgqrcBPnTp1G/N7YqhQKHMAUGr+Bxk2Ny4E54RjOOCAA2rJCcQx3cEHT8uWLZupgnOy+zFNMHXFZZdddu+VV155sJ43Q6d2qeW/DXuJU8rMAMAxSq80xbZt25bxk5/85KQBAwbMlCP5Dj1B7qIScuyxx9Z99tlnr3nnnXdmnnHGGTfUrVuXr3KZw9D9Ljk4uclZdv/vAbgKngYJsjRdAIyONtbYZ07FcncElGfuSxN0DT00A4Z8U6kb99lnHyriaumUKu7F9miY0Y9WTlYude67jCoBKheV6lBWJ1QmCtUtyxPyqDCnFBubzs3iEPmIxP3P8BvTk5Kge0pSP1VaXVYaJKsyxVf2P63lhh7YX/ziFw1zcnLcst8lyb/3339/kD9MK5MmTVq8YsWKb6V721Jp8FBn+g6w2HXXXXer9lXeVktPyiOfq42NrbRCzKtnHAuUxIwnhhTFpwBg0NjbeeBDAIwd16uVUzc7O5veyKOffvrpYcOHD+9z+umn509qmiaGDh268ac//emvHnvssT+rJcja9pu2bNmys0GDBokVp4grY0xJBx8g6BSO6akffvjhmieffPL6ksSRwddyZqfceeedA5TmmipM7mMfCpUZeb7+55mKi7+r+iLnBKcoYSSiFas54CJP6c8XdvnCEpRu+IE90/amh8UhneBLlUr74rsMxPbff/8StWiiDhBI/8t7HtwfAihWiW0w+oj8kb3ZRssP4Dwb56Ib9iKdm8WFxiT/W7kpTe9ooFAqpM5u3ry5W5iGDiGr24qDfNa1q0aMGFEhy/jOnj1723/+85/R0rWUZULDSX5H7Fe/+tX1F1100R7Ti7OnUCHKXQAZV1999Y1y5lwT2owlsMf5wJjhfOGYstFjhTPKF3PmnKgS5ZjXQkddfPHFt3z88ceLunXrdpt+Smu6OnTo8KGM7v5yUJ9RfLfhmOIsE2de2++3337uFT6OI47i4Ycffsw+++xT78EHH3x12LBh03X/5T6o78FKEi1atDhx+vTp7/zzn/8cp/sOW7t2rZso2r7QxeAzxAEDgIzkmFf7tezhmGOOqV+nTp2DrCKLOqToCOi3PDnjrHBS7unNzMxcqOBdTx/PtooUI5YKypN69evXr461b4Yadgf740Kx3mpkg0wsn3bs2LFlxYoVaV0DfA+lRHZKNtAJ3MoCWPmwvIhiv1UUVk54Lpu95eDNUWlQGJVVP/3gueaaa+6SvtkX/e5ccSivd8lJ/HLChAkV1Tjd+d57772h+KXcCYBOkh7t6/z1r39t5E8HqgiVVeDzjjzyyFPr1avnWig4msA4SAyrGTPbcEBRIpzRaKVojiytODkpMTlsB919993PffvttxPvuOOOtM1dajRp0uTRK6+88udff/31Ryq8WxQn5s5zv2GccSCJG8dsmzdvpkf3iEcfffQd3fM+Hym4i/Op2bBhwyP69OnzkLaZp5xyyhWq6DMoOAcddJCTC2EgB/b6jdVP+OJyp569eN68eZ/7cAqiWhj244477kQcb+sdJ48NHG/yW+ddz7Q/Xa7I8V9qva882yr0gir7glDc6+raaleJHn300TE1oortLUDvANlEZaL82LZhw4ZMHVZ42pVHqWVOmihJ70xZkf5/zyE1OGflpjC4pqitrFingpVb/qfcUo7oUAhUD3iLd/jhh58me1YbvaBOo3OlOJTX2+bPn8+qaXQ0OS82zR835Y0bN26t4pjHW8nioKcXfwJ93Cj+/Oc/36/TVf2NVlntW6Xax5JSKZXnWWedVYe1iqUY7vlmwOjxZNwRvYpUfmy8mmYz5wCHjELCNXYOMH4qQDHdz3J8Z/Ts2XPs+PHjB/3xj39Ma7f8iBEj1qs1+berrrrqZ1lZWbNVKeBdq17In7oKiBvpoudUuNfSxx9//Pm9evWa+tFHH3XiS91nnnnmLyNHjpx5+eWX36cwMmTAY9FprzDohOM/XmIuzpgK2NInnnjiyoMPPvi4oUOHMmVPtVK+JGKS4V1ybFZhNNAJ8tnSjyyocOkdXbJkCeN4y52lS5euopeT42gFahVtcRx22GEnqhFS5acSSYYPEFQBHe//LRTyBdBrjs1BRWaTJk2iQVRi/evQoUPK9/Bcywt0gwaZSPfHE0UivayFTkZtUWFE4w+R+JfIDtNAt3AoE0B+YBuJB7YH+QB7OwaOzWnlWou33VMem5VdIF4cm90uasNGEh/2CoMPXis1b9OJ0lllbXXv3r27Sq/4TNuVcXSMjpXi0HW1L7rooosXLFgwZc6cOWO++eabCaNGjRo/b968KXQSac82QcecG6dtbNLGueQt8Zvs88RFixZNkNM7nk31wNQvv/xyxLZt2zZRPxQH5caoXbv2IdoOu+CCC/bkpUSrsz9QccjpOkxGfI0U3k15IQPEoZtGKRkVCLeX8+X2XG/nOF6zZk1iyig5Mza9iU17ENc121966aX2coJLtGZ0aenUqdP1K1eunMuzla7vzVtlaVWLzu1FXIVrKnv+UcXALgHXyTD7/xxcl6s03een/sBLqNWtW7dW/BaVjd8z7VN7F7kSIjlW6LRPysu5qrQTMiMfLb859ue2t2nT5nx/S7nCVFJ6hBO2PQ8iUSoS5e2GU089tVqusy89W+6TUSyW96bLyp8cNSZK/dWqgkhp2qfoNf44zrRsCqJSGtZw/fXXH0M5cZEqBpMb+kw515bbvXv35gompfjfeeedZ+j23abhMZmY3eB/tmQ7ApzjPn63+4HzFk5lYvokm4Kstt50003H+KSnQqyM0z5V6DQlZZj2iXtyWNLTB1WusNiK6qOJekZCaMnyKg6lB3kmG03CK9MmO7xZOrJZ9WG2/Ids7bdTppLztzDMjsuBNf3I7du3b5VeSvStt97qojSWdtqn+IoVK2b5oKoFlWLI5Ugdrxaie7YUI9H6snGYdK1v3LiR411yMpfqpzxe19NTCrTAuY5eAl5nM55Suul60WiJsylDGArAdDS1/va3vz327rvvTn388cf/ku750R5++OGB11133VkfffTRC7TIVIA2RV8nWC8T8SftInbIIYewylKM3k8VZvebCo9rnfK6hHQpPdskk2VqcT5/9dVXn9CsWbNufmJkeuR2SCaVVimXB40bN2aJuiMkHycgZADWi8OmAkbeZjzzzDOfuh/LGWZTUH7RusmzHh2IHheFol5bDmm1a3HzFkFlKKUKDv1EHoBMlE9uWUg5EavcyRLSoUOHlPWW8s7z2ayH0PSlsmC2DckjpThYEaVcAzbQ0pEKuj9RNkwfLUz+t3A5TtZX7qEMCbwfPD9qLAoZnoY7x3EZtjJjZf6AAw5wYSqf3awXJaBc4lHFcWlU3ZEWe3/hhReedvDBBx+tQ/d1vSH98EeFQ7mk3pUeMiXhbmVC52IKo0ybinod+Qp1VB/WlT9QV/ta1LHotel+UWAquC5SFmKXXHLJvWmY07qqUW18g8qIaOyXv/zlGTKkrlbzTplTEpRZiucc0/3222/nsGHDXrzlllsa49zpkh2qNN0ckdxjhphjNsZr4rjhyLHhpOLE4qiqoMQOPfTQYx566KGXP/zwwxG33Xbbme7mNPHJJ59slKK3lJP1i2+++eZTpSVPjo4rsJZeHE0r8FTwOKMUGAoYabPCo3t2SC6bdP/arl273nzRRRfdNXjwYD4giRpf1hkuatqdKm+ob7rpppaqnOmhdHJhT2WNLMhzjpHhsmXLvtXlRaW1TKxbt46VYZy8zMgRB/KuOBTPjD/84Q+X+n+rDb/73e9+q7SmJFNk4o25Q7Jh5odt0vm05UmUSGXCMUtSYggqTb/V6E35tbI5n1buRYniLTvhrqdssEE0LzhmyxfJd3AtNkSHO/W7fQBJftGY5X+3+XMFbVxX1JbKNbYlh53YZPuQJXM971I5/EZlrtLyNd34PKhyqN5qrLrTDXOL1s0RnS0U9I7N7LYRrffKAuEQD9N94H9zMlNBcne+AfGTbxA74ogjTjvxxBPTvshAaVFa99gyUBCV4ZCy7OP/SiGcQ2rKhVKxWcUvpc6YPn36+0OHDp187733PtSmTZvLVqxYMUOKR49EHvNv8kU7Dhwbvar2cRRYAcBRRfnWr1/PcpC1jj322DN79eo1ccqUKUP0c1rTj+P4//7f//vTPffcc4fiyAdIifRRMKwQEUfGz7IHeoeVHpbIpKLY2bdv3zv0+0//+c9/jnQXfJ9dtBb9cXUk9vvf/76F5MGa6E4PyDNkFEVJ3PXZZ5996P9NC99+++1kPdfphekkpGrwfvOb3zT2h9WG888//2qlr8SGz1c6eZmZmV9rX2H6Z46dGp7bVK4qtXejfv36dag0opVkKphuS+z5BiEFlF4cOofdb89lT37YFkU6TIN443HHHXfwySeffPApp5xyqLYDdLw/i36wv+CCCw5QGdyXjXPRTfb6ANsOO+ywA22LnHfh2Gbh2Ka47uO3vbX9uLBNcM2Plb97n3POOb9544031vokBCoAhrWddtppl0r+NZPNQbJOFQTXUMdRPpWP/mx+hwtvQTlXls3igK4TP4sjz+MZqWB+AeGZbW/atGnKw2YqiRLb5kDqxFTpj5MyuUEcW7fmD79SC97tGTPJpvPr2rVrd4q/J0H37t2bqWXD+NO49rk2fhSkbP4oP1yW+mS8SBTd48adCgZb5L799ttd0jm+9Cc/+QlrObdQmt0yqaRTTheHLm7EnzixgdLOAQnJkTPOerupUPOhhx66QveojOWPIbFnaJ/z3HPPtfXXlQjJs0LGkHbs2LGRgnJLIpKHFndIOpd70003MbwhbRAXPSsxjtT0R86A2xcFcVR80za+Kx2gn2rcLUnO58KwfAefJ/HXXnsN/SqVY1iSpUMhWsZVdta99957lbpca6tWrZhPeauVu1QwXZLMc5988skmPqhiufXWW49Hv3gW5QJMbsnPj8pTz9ualZU1XUFU5Uq3rDCGdKbkUC3GkI4dO9YtU8zzU9V94kxEdZhz0kknlfvQINUhlyvs3Kh+lQTu4V6iiJ2wus7C47gsm2Fh8Rz2JYmv+Rvgw4zLT1hwxBFHVMk5Sd98883OkmNKY9RN/uDttI0hrTblvjIimqfWUm21UNyzbfworRx6OOno43U2vy9cuPB70/vcfffdL/3iF784UhXR01zLa3x6FBlfSitJjh0faLjX9axexDWck/K6V/n8z7jTHTt2xGSkmQ/1nkGDBk1s3779Ff4R5YbCPuOVV17pp0qnx3HHHXcE8SCdbECPKK8PiBOv6BXHbUp7bNq0aW9ffPHFP7niiisedRcWz84TTjih2K+kS0iF6AZjeq+//voHVZDccIzkHh4ZDdciRmaLFy+eIUM+2/+UFj777LNPpSdbeC76pELuzqfSQ8A9SkNGkyZN3KTS1YFrrrnmlLp16zaw8lgc0Z4Ir8d5I0eOpNc60XtXCkrVA6DnZzRo0IDxbpWGHIPTpBupdc94TJekL0zZlvIrf9nHbdzD/ZQVULlxe/6342TIW5UhZFwhZboS2dPTlzaww1deeeXfdMhMNQn9kmOT8tsh7kE3sRG8tWTDRpi+clyWzaA+MDgmfqnGEX8DPwCIk+6LYf+U9mPdySqG4lgq21hdqZQCbMqOEpmiobQ4kfabDPXO7OzsAl9nMU3Nn//85wf/9Kc//WTy5Mlv16tXbxeOKU4nzh3TKxE2hYnNxmaijDirvN7nukMPPZTgYocddtjxHTt2HCQHeFLLli3PcA8pA2efffbRL7/8cqdXX3111AUXXNBEaWS5U5dGNioOhhtQMLzDRdz5+GmZHO6zTjvttOuYTsoHlxKrhT/8HpJFlVVq5eGpxxxzzNmSUaKHLWpwwDtBeV999dWH6V4jefjw4VukM5uUR7s1hsi34kB30Vs1RG73p6o8avT8TWnLKMyZicI1Vj4NpXfHF198UepJ8Q8++OAS2yDigUqrTNdipTZ/ulJQRX4C8kuWS0GYXpsuKQ3MqfvdOKNikF7ikO5mEwnTwo0W82gZ0vN4IIUo5eEBgR8W2FVe1+swRr1kumR1VCpQLqN6Rxjca5vpamk3K/eUNfwG6gXbog5rYXA/11lZJSzC1f21WrVqlerbyApFcQwOabqRUrjnImuUJIrJf5999qmryqbIcWkffPDB2rPOOuu6+++//4+ML1W4O7Zt27YR5ccG24dBFCocQsBZ5aMpHFV7tu7L0O+MbT2jd+/eEz/66KN+pXyNH3vqqaeaDxs2bGzTpk3bKty6ekbMChAOMc8kfva/CgNj8L4aOHDgI0rvCc8888xXPqwSobCq5ZeCDz/88AA54gmLh3zIO3q86VGmIcGxyNO1Hd1F6SVv9OjRvXC0+Ie8szgVh2/41GrQoMHJyv/y7rEud5gA+4wzzmDVMLckbXGgs3YdDSqRN2/evM9nz55d0q+hSwX5YGWJ/NC+psrMUf7nSkGNqZPYpyI/oAK0ClHp2SVHIGVnftCgQetlF+tQLgzpqQuPcCkrBpU057Cn+j0mx78kUygFfmB07dq1GeWJY1uOGqgvsWtA+TPQ92SdNz1E56weJxzb+K0sm5Ubju0Z0c3KBW9MgXPU/RZPiwPlhL3ZEY5POOGEtEwlWFaU5vJwSKuNU1spDqmUxPU+oTCmZKY8KAvHIEVJxcnKe/rppz8+/PDD/9/bb7/9iJy9TTLGu7Kzs+Vj7nC9rmz0iPI/Skv4FDIUEmeH8/yuAhfT/xl//OMfm3/66afL+/bte49/RpEcffTR9a6++upTVDmPl3Pcr379+kcpLTE9KzGtC0pPJc7/pFl71xM3cuTInrfffvtlzZs3f95dWEr0vNRqxNRJu26MGDGiO7KS0WNycScjwKAwlIHKFmQ0Ns2cOXO0+6cCePnll1+qU6dOPeKE7tCAsLgUBXpFDzyNqara4o7yyCOPPMjrKtJmH9QVBWXHKiefV3kDBgzo7E5UAFaBWF6wV7mt27JlS+cUVgaHHnro0SrHDEPyZwonauu07ZKdysjKykq5hxT0rG1mH6loKSfkBXIpAnpHK8XWB6oHF1544XX+sEjWr89/cUc9zcYwO8A2oIOVuZltsrLIOY4pH/gWReDKRocOHardDCmBslNzypQpr0pJcuUIapePjGtiwLGUmwHHOXLuSjwW79xzzz3ko48++peCkQ7myD/Y7Ab7ykF1YcvpdB+q6Df3v2ET7wO/KT582BJXAcx8/PHHC/3wgDkc33vvvR5cy8azSAt7NtLo00PQHGerIt06e/bs9/lIwQdTVmI9evS4jeeTPrDnIcdnn332AX9dSWC1qM1Kw25fBJC26L60HzXddNNNJykfNrhABOFZ3rA3XVAcSEPaJsMvDDnFc5R3TmmQZbK+FARx51ov+1zF+VQfXJWDieyVJid/ZO/jXCSW5+SPjikfxa8nWAwNGzaspXByUnk+WJkCv4+PGjWqwpziKNddd92Jen4u+V4SSKvivpnyxUTkPriUWLFixRyVDbeqhtks7EsyZn/YyC9tfGxX2wezJ/JDmRi/3D9qUhmspzC/E1gRUJ8a2MSobLEPlblFoUxaHrPHVli+F7LlshoUH3l6sVQJ3nzzzceUtrJ81DTHB1UtqIxW886srCwnJOsxMKxlQ8tLrZuYCl2Jx3N+9tlnqy+++OIHmzZteqScivl16tRh2YgtvKZXhrlreA6vtHTe9TIo49yrCcaWAi0tGYlauj52wAEHHHbvvff2mjp16juXXHLJSQcffLCrQBgE3q9fv3bDhg1b/qc//elOZTxjb9z4G1pmljb29L7+6Ec/ypPztli/r5eDeKvS9ifdz5ya5UHeli1b0jq2sjw555xz6nfu3PktGTdqctfKJs9VmFxPHfJT5eKuRW7Tp08fKf7jTlQQ77zzzr+kJ7XpJSU+xK840Ct68dAzpSWvXbt2r/qfqhxPPPHEs8RReu7KQipYHtEbouOakyZNetv/VCEQV2QbtRNw8sknX1oZFUnjxo1v1C6GzprtKAp0HdARkP6vUsO0ROVWleaXeh62qVCdtOcY2CBtsYuEP7UnUm1eS1Y1Lr/88pRXK+KDYzl37hg7IL3i+wf3tk/6yFyybHkVtO32PNmmHdnZ2e5bCup2iyf6bzajCDIOP/zwk3/5y19WmxlS9kR29wgriB49elzaunXrd2VUM6jsAQPLse2lXDvliHyiVv0f3QWlpEOHDhc88MADr8oprC/FzJDz45xGxskASosBt1eW/Mar9ejYGU+enKRvVQl/rIK44ze/+c1FRxxxBK8K3dyZVqkTHgWVeUVJh8KmwG5TWBlych685ppr/u0uLF9iL7zwQrubb775MclPj83/cIqKDzn26tXr4bvuuutpf21KyGGuKfmvUxiJGRGAgq7Cn9hv2LBhRf369Y/UTylVCMcee2zd3r17d/7DH/5wm/6NqVJ2siffiTPH5AEGxD9j19/+9rfTX3nllbSsX18YTN00fvz4mZJlHcWNFUJcfhYH+U8DBCdbcts4YcKE3hdeeOEj+qnKfFAyePDg+/785z93lHxrkS6Td3FY44FyIVnsaNmy5f/0799/vv+5VNBDOnbs2GzlfU1z1AqDckblwnXEg+EUIGdwVZcuXW785z//WWHDOi644IKj3n777Qkq527JVCsPRWFlEnT9tilTprz561//+mZ3IkWeeuqppvfffz/jrmPYKODZhItsCsKfzxs3btwrkvdN7uQeiOzznEMOOeQY6WbNqE22OsUwh93kpd+ZjJ85bfd3JyoAekh///vf36LDWFQvioJ461qGeuTJcfqpGjOlWh0tidiyZcumqz48SuWpyO8mmPubejNS9vK++eabT9atW/dtvXr16sr2MW82i5vwkd9uxpJ60B8i98Rv0fPFofsKujZxTnkMtU844YTzZM9IC7NLuPKBDhRn46Qz21588cXbb7vttlf8qUrnrbfe6nTllVe2kW4W2+AmrWySQcIeqUx8c9hhh/3CXxIoiFatWh2rFlVi4XoVMn/03Wso/b5dip7pbykzzz///A3Lly+foqB5NbH7OxzBK317TWyook68DlAhdOeIl67N4lhK/t8VK1b8d/Xq1e63BQsWuD2QDimFm1N01KhRz11yySXpXEu/1tNPP13UK/v7/HUpg0Oq+Kf0yp5r/W1Fouvqv/766+10Wy5zxBoyZG4jzsSfY0989OjRz1XWaxQ1INooDm6uW/K6OLjG4k46JBsOczt16sSQj9S6IdPM3//+998SJ8s/4symvHb/FwX3+OviapgNUnAp5XtRlPSVveHnEnZI5ptV9iZUpJ7Qg65Hu7JhNqs4ommUbdncsWPHEk81xxAh2aINGzdudOGQJ+hadLM8ZYuydu3aRT6YSoG89odpAYdU6Q+v7EuAva5PrvsKI2L3Od7gg0kVHFHb0kVMDmVD5lYmntF8tnwvbBNx2ZFxvP30YVU6ZZyHFP+kWr2yrxRUCBqohb/cSUxEHJCEU0ghxWj7W8qFK6644ugPP/zwMQXvHEUZ6ISjaVC5KG7+v3yn1K6hEkw2boZdQ0HV/dSWuZmZmZNuv/32703uX97wUdU///nPVnqmopcfPzNy2lcJhxRnQYWrrW5xNQUVqo19ixpDGRK357m03C+88MLDfBAVjhoRzB27RjqQkkEwHaDOyK838sGBaNu27UWVbegYtytZr5GME3lqcY7qfGGYTqm8Zsvon+yDLRMlcUh9peHiYfFFD/353C5dulyv8NLu+Ddu3Pgk6X0mtgHMOSwOiz97xT+LoSs+yBIxd+7cCcoDV3go71YWObbNnpVEvHXr1hf7YCqURo0a1Za8lg8aNKhTuhrnPxCHlHvKzSF9/fXXOyo8BOCeURyRjoT4zJkz31IQVaKhHeXUU0+tp/RQkbh0kf/4GJbvhW2wZcuWLJXvSp25I8pbb73VReX7+4PEC4A0mK6bTQgOaQrQUyaDPs9JTNADFcWEKmXafuutt57rbysvYqqYj/nmm2+G8QgeR+8olUu0UOIsmcOUDNeh4GzcR+azV+XODfFVq1bNad++fYWM11IFfPSAAQM68VziZrIzI6d9Ts+ePVOaLSBKSRzS4hwtDMRnn33WB8eMe7KyXAezY+nSpf7oO0iD5Ln5mWeeuUG3V6rB++STTzpJhlujulEc6IXpDkZCx8gwt3v37s0ro7eXZ9IzqgaVK3PknTmiqVaG4K+lImLZ3XKhJA6pyTTaI2nH0hdWFdvepEmTdM9LmjFjxoxRlIuofUi2YUWBXcP++fBKzLhx454jGJOZxYNyYxt6VxCTJ09+3wdTYeB4z5kzZ6ycGXqtcinbKgtt9FO59pQFh7TkEJYaqZvNnhcFMqWe87LLffDBB3/rg6lyqA6eqDRtjZZLy/fCNtD1a/r169fUB1PpvPnmm92Vju8MTRGQBtN1y8/gkKaIdwjjpjBUkGZEbK+KffOYMWPS9WFIrGPHjpfLGXVGUkY9MYQAA0HBw9Bbywo4F4X/+d0jXYhvZxnF0vZ8lAQcxk6dOjXzTl587dq1OVEnI2Lk4u3atbtet5TIscOJUWW/XOG4JT0JDyUnvRa2l1E240L9bd+D3nA5df11uctU7mGLGgGwuPMbaZo2bRqt70oHZ1tpXmP6gTNthZ2GjOlvRN5FkSv9eKwi9MMgH5977jl6z4v1qK13GqKGXM6T2ytv6CnOKc9eyJI4pGYXAD2M/u/vj0+fPn34DTfckK5VV2IjR45khpDdepRMPsjMdJq9VQ4cE197E8Cr8969ezOGulR4mbkIYKN4jj2rKIgfety5c2fGLlZIQ4/y/5///OctPT5u6ZfscoiHnIZ5jz/+OI3OcsE7pE4u0fxJlk2y7eEe8YNzSFu3bn2enr0dexaVR3H4IWrMo5TOV+9l4l//+tdVGzduXElErXwWh2/c4pMs8cFUOnJInyVOlPPiMD1nb2+QFi9ezJLBgeJ4++2328pIZ1tBoFBitMEqfFiwYME0nC9/W7lD5fr888/fokflyMFYbgYtyWAlxolyTMUd6aXBGVwkp6sf4VXAa9mM22+//ez58+dP5NlykLZa3ADZETcUkmPFN6dPnz5M+1Qi4yGZMwG3ez+DLCxPMPRUbPzPM/SsLJt5IArn2rdvf5V+Zw3/eORVfNSJd2FZ4fH7uCqW6eSLD6rSefrpp69QvHJxQIE0RF/TRoccFAXOtojr3kw1Jq5Pp15DmzZtGsoYz9Ez6ZXi2cUi2Sd0mzJpFbtPb27fvn1xpCrFITUog8SLNLGhT2y+UYP+zL355pvLZUiBQV6pjDvHioegz2YjkmVL/HzZ82fysUpF12cr3WX6mpexbjh1pntWPlNh7ty5U6699trTfFBp4+KLLz5aFSLj9p0zmmxTQeezP/zwwz7YNH9bqQkOackYNmwYPe0uDlF5FQZyZFNZ2zxz5sz3K+NtT6rw0aHi6gomdUwq6YvoRK7KR5VY2KR///5dFfeUjDd5YzbR0iLfYIEPKlAUN95441Hm8FCZJDukZryVGds7dOhAD186ifGxgJy7id4pTShAVJGpqIkb5xRfrnHjRPmSvyLGB6oSqzNy5MhePFcKFzdHDhgPCxh+M3DEU9flvvLKKyWepB2HVPe7B6DcljcmA0PXbE12SJnvcOjQoczNqp9zt5szGnXorEcUOPaVelzhr3z44Yer1Ksg0vef//zHyT2qp4CMU3UGuBb5ed2Jz5kzZ8x9993X0D+m3PjrX/960rfffjuWR0qum003UoG0YcAxbkCc/XGcuXOL6g0vDSV1SJE1GzrEZuXRYIwbOq8tp1evXq39Y8pEs2bNTlVejVPwicobGQFxiOoDECeTXxRzmCdMmOAar2WBJY4VlvvgDnz5KRLsxfLlbuh+nOEbpVyNLiXUiGslXc9C/3ggcgJsgcU10pCjUb+EDxj97aUiOKSpg33nTVR+yPnlvjjQa7PTjz76aFWfQqymGuMLpGMbyH/ingr+urjyp6sPpzREO39K23ivdcQRR9QfOHBgf8UppVf2QP6YPpHu+fPnTzn++ONp/FaZD7WKolKmfTJknObtv//+x0jgbnoGpmVQoXNTF6iAuDnPRN6nn3469He/+93V7qY0c/fdd59511139WBOMmVszdq1a7teLOLDdD7ab9G+lhzmTQwIv/XWW5nGKeWpK0pJ7IMPPuh48cUXt5GsdtasWbPOj370I6foGzdudNM7sGKLfnJTmdj0M4oj0yjldezY8aZ//OMfJZrKAgd73rx5azIyMpj2yE25w3Q/Jgdj6dKlX//0pz/9Vb169WodeuihtTt37nxvo0aNblFFuUlxPKxu3bqucMowuGlYbOoNFRa32dRaCncT01Xo/r/JwR/qTlYh+CDutddeG6s419xvv/0OQ87IGywNqYAc5Zi7qTkOOOAApzcKc5sMx4cy8o8oP9eqkbNFzl+qK2/FTj311Lo/+clP6jz00EMPnnfeec0UN5y8mJ4TU764i5A/OlIUqqASUykp/1x+kdfKfyzczqZNm/6PDGSp160vCBzSVKd9wi6gi2zIv6CpjtB5flee7FQ5yJA8F/fv3/9BOf4lnjP1uuuuO+Wee+556IwzzrhG8cuTsa+JziITK2PoAPEiHugBzwbyF8hv7iGuyFP5sPb666//3/fee2+Fu6AM0Og47rjjfquKN8Y8y4SfCnIUsQvbJJsVsg13PPvssyP9T2Wl5oUXXnjQgw8+2Pm00067QPqN0xRbtGhRjZ/97GfuAp7NdFXIC1simbop8kDO1hbVCTNkR37tTpQQHNIfwLRPeUrXrrJO+yRbcfkTTzwxROU8hk02fS4K5Y+Tpa7n+Qfo+RWyZHBpkb1uc9VVVz0qXa+XqozNTqpcb1Q6D9SpEtftffv2bS59/53C2iZb4eya5LYjqoMeWkUufOlinuwHFQkL0pAndbOysnaeLVQejpFdS0zzVhRRG+79gW1DhgwZqKC3yJ+i4uZHpuVyz07e6zfbiCzLnuOb8dsONfZnyV68VIK6qXoxZswY94WfDFOi1SwhOs+ec8B5Gc6sli1bVmivmYx0K2XuOsUlR0ZyueJBSz9X/2+Xc9iFitRfmlaefPLJ6+nNsNYsspGif69FG+0tNXn6HslcnCkfXMrgkCoMWpdxGfdEq0sFy+0VHxcPZCMHvnmvXr06LVu2jNfDu3VHEA/rxQHrJQVmLaDHxMPr4GZ6dJVtyd15550nKv6LFFeGSiR0Fnkn50dBROUA3MObAM6vXbuWoQ2s+rNGDun0adOmDRs9enQ/vkru169fmx49etwiR/2qrl27Nn/55ZfbDR8+vM9XX301QvHgQyW6g+i9zWH4BnGLIgPnj4qGskcPrhEZG7lGlddVEkG5vao3StpDCugg+mfyB9P/qH6B9GsDPXU6v/ztt9/ujAwvuuiiQ/zjd4MeQzndp8jpfsx/AJarcNdY2DwPGRnof/R/0kD5jGL2zBNn2jP/uDLDalvKWz64y0k1j4lzND6qZDKlX23pMfPBlhhsBW9FevfufY/CJCJxpZuPZRLlGzlEZRWF8/Rsk5aZM2e+44MtMXJIy7JSU7nO6FIcqvv68Wien6ruE2fFk3vK3EM6a9asUaQb2UfLUVHwfNmsrUuXLp2iIL7nXVU1eOupOLvEYS9SAXvs5ZHbtm3bUr29ksM2XvezaiN5ldiUd9uL2vRcPi5LvDaQrBMZo9/9UeGgR9E6hvIH5DN7hYGdSN4KjEtBm4Ko0uOGy8zNN998LHJCCQwzWmYw/G/x8ePHl9pQlQUZ6xZq4Y9dtWrVtPfff7/z9ddff4xOl3vFnIwqxuPnzZs3QWnntZyz6hQq5BE1sMgpuSKMKCVjt9aUZjgBFYyUkOUNE4XB8ob/LX9g+fLlfBiWiACviC0OxIuCYXG0QgLmxCld62hVFjQWtarxzDPP/FbxZbD8dwIXJqPiwMkzRw/IT7s3moeCf6jYJbKt2ThGkjkXuvORzd1fkMHFsJIP0WcUhznJkfzNLcsHOMXRuHFjJtIu8UdNXJ+cJuSHjpIGHGs1ZP0v+eh352DihOm3lTrO0rZSMsqS/DYo3XizTq5Kv/uQIKrnUXhOVObIOpp//J5U0eP8LWDGCZ/0cuH555938w8nPatA1NBJOD9JZZElBmcNGDCgbaNGjUo05U3z5s3PGDt2LMNZiAANdpcpyMbKNw1PiOaNPRv5+jjFZWen+mBLQ1mXDq1WDukpp5xSYKMqFagPFEauyoB7PvJJllFhqKxgq0s8a0tlQZlTtBMfTxcHcqAsSc7bv/jii1J9WDtnzpwpyiv3TPIWfY90vKRMtExTdlKB8sW16AoNacJg47isIBOfxD0TCsa0adPeVaY5yUcLphkMywgJevMtt9xS5oHvpaSiWgUxej3k+Pag4CvZCYORXLmieDg2GPaorKLGRRXQnE6dOjGFRYnjT2+RgqAFlcgD21tFzJ5zKDvxYUsu+NE8jaaByl7EFcaa7t27X1Map7my6Ny58/lKFyWc+JOOlIj2PpL+qDz4zWSNAUGW3jD6K/IrWfudLSpbQB+4ryBSMUimN+Shdxjir7zySpuy9J4VR0kd0mj6dMxctRuUbmftk8uIQR5ZhcBzkCF70sveyg/QmIqOuUXOyNVkbpuVBSAc5BtNA/lr1+j3+OrVq+e1bdv2fJ/scoMPS1QBDpcsdu8aLgTSYjqLTEiLofMb2KSLmbNmzRr22muvPaA4X3DXXXedee+99/72/vvvv6hXr153Tp48+Y3s/NlJzAnNIV+s7EfLhMnAZMpvdo57zA4oHmV1CINDmiKqE5orDMbru3Ah2W4XhhoXCwp7w1AV6d+/P3Nfu7d8qWC6SbmQDVzTsGFDtxJbSZg/f/50hbPdnmn6R9hFbVxvx5SNaNlMBbvHl6ndoDxEn1WajWB8EvdcevbsSeFwK0UgUMMLwGWmN3B8Pbunzqnlelyff/75e5g3jLSSYGSAXKIKxv/eWUiAIkeNLAZWlfPKfv36lfr1oApiHQWVg/wtL8zIW48H+WKFzuKUHFejgPPUAqxWc6keV22cUU/Giy++eI3S7pxS0hOt4IoCmUXlgnzNYBEGx5afhuWBXWeQH5QZ24BrOG8GqKRGLfLKO/ftt9/+R7obCiVxSCEqu6ysrJXDhw8f9Omnnw7T+cSM3TiHVsEix6ju8b/Jlj1yMrlGw+Y46uBG8yN6jNzNASvIfgGVuOLYXclNS8OWYQ96XqIBWxiWHtIcdbpXrVrljxI4B1HXITjCpKxuVR5RybpNMsM24Iw6fSVM4BkmT2QQlQNEnSCzI+Rd+/btyzxhP/UD8SJMiw9YfIyoDoB+d7bIB1MhlNUhZWljH1SJYSoghUGyC9TdolADcKYPplqgsnGQdPm7gl0EyNfsn9eRXNVP1/igUkaNT4ZfJfI11d5Ryorppe2B41Tyx57HnrzF9tuzS1oPFELuSWmeGabS8fNdsuqJsyBkigmWYwQL3sDE//3vf7eWkqX9lXlF0qZNmwtUiTLwz309T0IN0l2QwULBqHTtN69wvGrMVSXdr6yK869//esKhe1qcqs4kgsJcSOP2NtvUSeV85Z/ECkU8W+++WaM0s3UM9U2L9u1a3eK0kiJ53WsS5jJgy3ZCESNCr8hq6h8ygvTDeJgcI48MkOVnC9s5rgpDZv79OnjPrjIT2n6oCzrkYlJ3ouC9FhPr+JPAuLdunW7DV2XgzWT/6Nps7Qi96izWVqorEzPCdvkyzlzgAvopY2zKEQFOfbbFY/8wiqQlcnCMJmQ11FZlQfIAP2Pwv+Wt9Fn+YYZtX/uoEGDSrySXEEw7EDPcJlC3kTzKoqdN/R/hTukfm5mF7FUdB9Ik3SZe3JKO/RDenKs5JFTgJ46kssJsiIPkaHimUOPow+q2qC0uvlIAVmbPpC2wsqAP5+7ZMkSxsuWCHpICcPKQrK+VVfQm6o81Ve5QS8Z6S3sFQKvmQAlEfGbbrop7XPoVQR8bPTll1+6BQJkbHLMeBdUQDBGK1eudMrN71EjJlmt0/ncyZMnv1teshk7dqybkJfwzVFB/tEKJhniSEWTXAC5nh4Z3Yu1y/3000/7laWFX5Vg1a8pU6YwWXpudD5Yy0NkEdXlgkCm5tCWhWTZEwfyhPB92Ulcw8YzrQLiOsEcqUsqcgWWkjikYLooZ4sE5fbs2fMvhMM8lkoD8xq7hRyQOekrqGchKqOSgiyTh0Ykh8fvnNN+iSqnYeeee26FvOK88cYbD1m1alWi9wvIV/K+qF4a0hK1vWWB51HWIz3tDs7bOY4VP/Ivp3fv3uW2Kg5vlxTu9xxS0y3+59g2/mfTtXxYW6HTPo0ePdo5pBYni19RG+haMpaeqlINo7GlQl1gAt0g/32eJOTGeY4Nzun/7Qwp80FVG4YMGZKoy0ijyRIoz2wQdcbNXlK38nGUDyol5s2bN03PcB9rA+GbXKvzRpnd43tIPYz/ma5E8xGHy8Toa7ZoZS0FcR8flFRJqhrvv/8+hYQS7xxxjJKlHUg/rVgcCM5HnUKUA7zxzV28ePHEJ598slyX2VQFNk9xcqXSCpRBHCi8xMl+Y895M678T8UcuY8lVae3b9/+AgW/Ryl148aNG4waNQpDLxHkz7uI4eNrd/ZAbxUGikoZ5yCq3+UFz2IzA0Ie8EzTl6hDEHUYFGfXUPj8888HKC0Vuo5zSR1SM/K+pzT31VdfpSfXzRXrF7hwZSrqgJFWdDEqn9JAmNFyQFzYOEeY9kxfljdnZmaOcImsQLCLsid8yJErB83ZD4O48r/ZlCimp2WB8p8McjH7gFx8fHjY1g4dOtDwKTebpTpkrp7nMiiqT9H85jhZB/hf8dvqg6kQoj2kJZG917/c0va4S0czfc+0w/IGojoR1RsgjrLf1XKSdeYRVhKc4KL5bti5QjoO4i+99FKJ5vFeuHChaxSarWBvx9UZlSk+atqj3k4XCo6K0sy0N4nCgFExI4fSWCWuzM1huhtVZtVt7KGbTkppIVFuYnucTisQpDVaYKLHBufkoLvpGmQktvbu3buF70Yvt9erGDs9KgdHmYJEvMxo8nzypSAjyrkCKjs+PJk2ePDgthdeeOFh/hF7HORBt27dLpYxYgJ1NwUTiUd+NuShIMrbUJE/lgccEz7Hll/0Xple8ZuO6dmd8+abb7Yqba9LWSiJQ0q8zSElTdq2vvHGG0x+b0ay5ssvv3ynrmG6Mid/Gk7WoEUGlvZkCjufDNcl5xnnkDl7Vfhkdu5HH33UycepwqEXY/jw4V2Ih5DZ3J5YaQ6QNWkoqAyXB4SN3JGJycrLlw6HzbLdU++4445yXwmH8Y1W7kz/IapbnLPNQA6KZ4U6pGPHjnVjSHl2st0vDNLk68Bcyo0PKmV4I8e99roeuURlE613o+c51rO3v/322z18UNWNmGzAEsla2Vy4c2g6k1wulixZUqJxs+aQWjjILznM6ojSgUNaUR94VzoZo0ePZnWf3XLOWi0oixUYkLPEfI0oSrUQUIcOHS5VnBkr66ZSomKNGiFLG8Yp+uoA+I0NB1ZKgcHNHTduXB+mZvLBlytqHDTkGcQFzDgRLztn8BtpsTj7a8lDPvbJUjy7+6myfhDwBerHH3/8D6Vfyd+apTx21o9KgHw3WRqci1aeZYXwo2FhCMkbGhfmzHGcnZ3Nkj05kyZN6n/JJZdU2ms4lQsmXi7xK3vSyOs0Ncha+aASMARIMt0g2W5FthB1xKNwjmcXVkklw/ORH3Av+RopE+j91ttvv/2Yyp41ggZSz549m0hGy31eu7gTV9KarCOpyr8okt6IJFfCucqDObNmzeovZyotw3VUH0xT+raSNnSduBAH0kz6LJ2cZ891nON/XV+hr+xHjRrVS89384CSLxafojbi6vW5VA4pcxcrjEQGRcJLyAv82wcH9S/P1m/bL7/88mrbofDBBx88Jxm7jydJJxvpT4a8MDvJtf5NUvyyyy5LuQ6bN2+eWy7X5Ek4PCs5P6vbhg4oeT8YhzQx1RCZaK04UxwEYv9bpUThUst/QRXuKY3xClSt4QFyKDdQIFzEBUYSR8EKiBkBn/Fuwwml8vMFhz+5MujD0/xaNWPChAn9FY+E4SIuBvHDiFFoiXsUpYeuKLpk1gwdOvQf6ap4qgP0UskxbSd5kLF8kezyHvmhv+S3GT6Iyri0WOVhJOcP5YWdtpypU6fyet6tpJMf48qhpA4pcrNKVMSZhsgHtRvXXXfdQUuXLnXLp0ovcU53syMG/1sZLA6GYNj9xMGXS+CjtkWS6av+8VUGlcF6M2bMeJXGkeK5WyJTTXdJQUbYLq9vekRutuz0eOX1yYpSuobrZKxatWqWnpdvLL/Lm++RrAPEU1R0DylztxYb10Jg+p0Sl1s9h4+ZdntdY+UuUqYSdS+QjyD9zvTBVEuYMlLJ2E3QyXoAyfWaT3984MCB//JBFcuCBQucQ5qqTasuqIz8cF7ZG927d29Giz5aWUdbbCgILXFDBWk7jhDrd5em1ZgmYjgk/fv3v0dKifecaC2RLpzMgpSV81ZIIkaKAyb0XiKD3ijdX7nxWl3yXCO5ftfto7hYfpAOa9F73AcBa9eunbdixQrW9b/8hzLwORVoZL322mvXK2/naHOrMSEzBBfpWdutQigt0TBwTn3DDd3bymt5PX/R8OHD2/sGTZVo6ZbEIaVskCafLoirjLVRMIWmBX2UfrrX6NqzEkqBDkBBlVNRqDwSCFvOmDFjut9www3H6nFVVu9lGxt8/vnnPebNmzdWcU8s7IDcU5F9KlgjWzbaNUy1sarPuziiFfB1bkz2Z6rS4pSDfLY8tfTxP8fYMPb8L13Qv7nbsWE+nArhk08+4W2gW0gAuRGX4jbFmWvdeG8fTMrccccdpymM3A0bNmTpmW42CmRgDmcU3yvoypl/XnzQoEFdfFDVlQzVUYt8ehymB6YTyJh6TnvqNDPOKMj2koyfnT9//kRELNnmD3TPzXULbVTQxkedpd0KCi+xKR002tLqY1XqWvaFocLa53e/+x3rocdYz16CSKy1K4OXWJM7KyurxqGHHsphnozs+jfeeKNLy5Ytn+Z/TlYSsSeffPIvd999d6+aNWvWkVJmsKYyy9TKSCbWPZeeunWu99prL7fxv629rEJDa3ZT7fxFafNeeOGF++Wo966INWRVeVz86KOPvq/4ZBA/1uFlDV7iTh5IMW1N4DwZt2VTpkwZOmTIkNe/+eabGcq3HS6QQIG0aNHiqMsuu+waOf1377PPPodIpjslywxtKEWZHUTyRnmVJ93ZpW2ndI2117d89tlnL3z88cdvvPTSS98sXry4SuURDqn0jR5k5ODPFgzlgnW3wdL6zDPPtFRZe8GdLIKuXbveIPn/S8+opXLGVlPlrqTGNU/2Z73iUFvx3TZy5Mhne/bs2Vv79fptV/4lVRumC2ratOnZl156actjjz32AuSh0zHJc5fkiTxKqodma/NkL3ZKrjQwtn3wwQePSN/e+/LLL9dWlM7NmTOnj+qDi2WnaktXWJvepYfyQDmLrMuNzXXrdHMfZUXpX33ggQf+P/6vCNQwvEF1XBfFM09mYBvxk/xN9gXmAfEln1QtxM4777wTpk6dus3/VCyDBw9u8pvf/KZTvXr16HDY6NOepzp2/X777Vef5+t4o+xSHcVnh65rsH79+lW1atWqrTps7T333POngQMHLswPrXoyefLkPgcffPDZ9evXb0D6pa872CN26YDTY+wCmxrwSw866KDDlP46mZmZ3xx11FHHXH311T8dOnToRhdYEcyYMWPAT3/600vl1O5AfjyHcoGe+UuQveVxZfoqRRHVQacr8sVqKl0/W7lyZcp6t0fANClycEYoIxNdIdGWnAqMa4mzBxVSeixcS27SpEnDmjVrVikrOj300ENXMPWS4uF6wWhhEjcgvgatMNKj9LneGvYGr0v0O03UnPHjxz9XwatixBYuXDhRz0706Mpgur3Fn//1Ww7jtfw9gZJTk3yVM3aFnPh+an3PkS5vli6g7wje6Y90x62CwzEbx5K9rStsPXT6N3erKhPGq25ft27dXOa9lAN2OWNDfc9U1LhUKXBISUO0DBQGZcmu8/t4nz59+Kgp5fTxFkVO7J1yXsZIlylnJm/XS0CYkY14scZ0tsprFuusq3F4i19es7q/BeAtTh3W7ldDvh3zAquBuQQ9Upop7Am5oF+yZeuQBcds6Kr2m7Ozs5fI4Rwv2bzasWPHC/hwpjosARwIBKoeVbKHFHjVOWLEiGlqvR2xadOmmtq7nlIZyBpqdbheRZABdT139Jzouhp169Z1LY533nmnZ7du3Tqpcl7tLkwjajmdeNdddz18/PHHn6nW12GKC61M1wNKXK3hq0rNnVMc3f9cQ9xJy9q1a2uo5bteW90VK1Z8oYr6b/369ZuvyyqsBfXEE09coZbwy4p/XWRN3IgzHbWqrF08ibN+z5Nsb7333ntf9LcGygE5kHXVCq13wgknHPOzn/3sxAYNGvy0Xr16B9EjRw8GvRdqrGxR42CTHIH1ciCWq7W6dNmyZUvXrFmz+vXXX1+mYFxr1gVYDcBBHDt2LDNGFNtDStlHD7lO17PP69u3790tW7bsqZ9LnWbG0h566KFHHHnkkUeprLp4IOfVq1evUgNtVVZW1palS5fukqx5xp76FgAHNUPlPcYHWYcffnidww477BDZs3qyvbXpbZTe7dDv2ySX9Wr4bJTO7ZTubZs9ezYyqRY9xIFAIFAqqCjWr1/PnHr0VjhUEbleOusdNejBo0dSDp8/k9/D8fnnn7/TvHnzM3yQ5QoDpb/44gteb1vPiiPaMxrt1THkRO82Tkf/M4FhrtI6U44oc/NVeI8WE9XTU6d47LYUJnE15KS6PT1Glf0VcWDPAIcU1UouIwURLUt+X+Ie0kAgEAgESkWLFi1OlAPklmc0hwiokNRYd1v0PODk4fDJsWLd5Rz9n63W/Jzu3bs3L+tKE3wQ8sYbb7T3zptzRIkLcSAum3f/Ctg5z7yiB37nf8Cx9vNTMoB6zcCBA28p7XJw5cHQoUM7Ky5OkOYsg8U9ko746NGj+/nbAoEyofLEkpdlcUiL/KgpEAgEAoFy49Zbbz1+0aJFE6iAcOo2bNiQ6MHDUcIBBZxCKiqcvWR0nRtjqg2nK4cv4V544YX7brrpppMaNWpUW9tBDRs2rMO4KvtKnPP33Xff+W+99VYnekLlaG6WU8Z4MlaLcvOJEg+rKJMrVRxTNosP13O8cuVK4uzGrykewyt7Oba2bds2lEz5Anw3BxrM2Ufufr+BGQ38rYFAmSirQ9q7d+97FExwSAOBQCBQMTCtypw5c95XReS8Txw7c5aAia+T4dXzpk2bEg4r6Fx8/fr12/1rcnNQ3YazpTATA/pVATKRLuPb3Icl3ql14KARthGdigpw7KLYq2+F6cJmkuiWLVtWumMnJ7zWunXrFiidbi39qDNPGpMdgDFjxvSrgClcAj8Q0D/pVVkc0vsUTHBIA4FAIFBxqPI6YuTIkV1VEeHUsSTlbq+XAafKv673Z/LB0aISizpcwDl6BLmPY7vGro9ugOO7atUqVzkCThuv6QHHF0fUwooih9R9Mb1x48ZFzzzzzPU+SZXOhAkTXlV8nbCisiEN0Z5SUDqzfkirLgXST3BIA4FAIFAtYZzlv/71ryvWrFkzjwqJWsmcT5zBZIcTpwpHEQeLHlWuYbNjfjPn0jBnNPl8spNLmMnXgN1P2LrHppPJ/fDDD7tfeumlrI5TJWD5UeJVkNxIm+Ed09yquBJNoHoTHNJAIBAIVGt43T1z5sxhqpRcb6lVVOZo8n+yY8lvyY4XcB6nq7DfC4LreA0ffS7PwWm1c4LA4nLk3r/hhhtO81GvErz55puPKW7Ibrcv6en9NVavXu32y5Yt4+srlg0LBMoVxmlLt8rqkAYCgUAgUKnEVCG12Lhx4xI5hFs3b97MuNDvQUXGq3WcRnsVba/XC3JAOce1/M71dg3HOJzcWxjcB3pmPDMzc1bnzp1vI5750a18+GDrvffe664oxjdt2uR6RwGn1NYwtjTAmjVrSHxux44dL/dBBALlRlkd0l69ej3ggwoEAoFAoHJh/fUPPvignSop9+W6Ki4+GtrtQyNzvKJQweF8mYPKWNDohzxRoo6rVYzcyxf/5sgZOK1y8DY8//zzj/koVglOP/302pMmTRqkKDLVVH5khX2cZTKKvq4X8Y8//rhrmHc0kA6CQxoIBAKBPY6GDRse9O9///ua1atXT1NlhXdFRcc62VRezvG0Xk8qtOgW7RWMQiXIPTiqOLmEwfVR6F3kfl5xcz3Iwd2s45z33nuvKjilsVtvvfXczMzM6ZKFSyjpib6qN2eUvTnpIi4nfUlwRgPpIjikgUAgENhj4cOnhx9++GzW9Oardjmg2XK0XO8plRg1GU5XQU4oFR3OGr2chTmpnOeaKObQAb2mgFOqcDYwrVKLFi3O89GrUJiiifGiisc6RcmlPdrbS1qskicNVPpsOu8c+ptvvvlYH1QgUO6oEVkHPSutQ9qnT5+2PqhAIBAIBKouvKbu0KHDGWPHju0oR3GmHLPlqsz4XB5vk4qQOUnX6Ld1csg2s8kZY5AoXpvb5HxukGObuWnTpuU6Tjh2vKqPvq6X45n4nyEANtZUDrFbMWr06NGvXnbZZRU2bdJTTz3VdO3atYnZCOyDJSp26x3FOV2xYoU7ThrisLl79+63KJiM/NACgfInOKSBQCAQ+CGSceyxx9Zt0qTJ0V27dr18xIgRnefOnft+VlbWVDmkc7Ut0LZITuUSOWcLMjMzJ33xxRcvDxkypE3fvn0bXXLJJXWbNWt26sSJE9+hMqRGtLGYVJaGjcnEIaWnFXidr2PXSzt16tR3WYLUx6k8yVAFn9GpU6emehZfxsezs7M3MzbWYNiBoXQnxoty3ip7Oahz+vfvf0+YAD+QboJDGggEAoFAanzvC3k5kw3mzJkzhp5Te62PYxp1/KKv9KNOIGM4c3Jy5C9uXTdv3rxxcnSbMfbVB10aYgxRaNSo0VEffvhhFznSS3iM4rI1umiAOZ5U5BwTb/bJjoD+3z5w4MB7wrjRQEVQ1jGkckjb+aACgUAgEPjhISey3oIFC0aoUsyV4+d6S83po+I0Z489YzMLIS7H0DmnmzZtyvzoo4/6PfXUU81weG09/SRi9IDy7FatWp3br1+/tl9++eUwOaGZeiYPITwCTIwHTYbfLJ68rrce3u1+bX0WHQjOaKCiQM/RO3QVfSxqg6hDKlXPeeGFF/7hgwoEAoFA4IeLnMh/qX7ED3QDRjds2LBb72jUKaRSTXYSOSfnMYcPoPiX3tMtW7ask9PI/6ylz7hWxrcydnW7zmfTM6v/3fV+c+BsRqHS1nVuY/gAjqg9n9f1Fk/C0u/rHnzwwd/KQajjkxYIpB17ZR99u1AYKmNuA3Ra+p3Tt2/f9j6oQCAQCAR+uJx11ll133rrrdb0cC5evHiBqy1F9GMnKk/+pzLFSUx2TKO9Q8kOa2FwHRvh4WwybpXnGJzH4WRv2DHXA/GRk7p11apV0+68884TlZzwAVOgQvGv7Plw0DWYitrQW8oI+HISf/bZZ8O0T4FAIBAIeDJ69OhxqSrIrUzxJMfPdePwJXu058eczuKcTxxHXqVzP5v1CnGODcezKMeVyptrrPIGwuQec1rlwNLjmrtw4cJRZRzDGgiUGj4UlB4y1MTpZVFYgwo99rodf/7558MY0kAgEAgEolx++eWHTZ069VVVlPL7cpgYn0rTvUq3yhSsQk12SnE2o9clQ6Wd3MvK3nqP+J+eJnM6getxiu31PFNTZWdnr9ThdjnRTXzUA4FKgfHQ0s810n3nlBa1AbqOLqPTKgc5vXr1Cl/ZBwKBQCBQABndunW7eMuWLYtUf7oPjahIo04i4DyaQ2nHhUFlbK/kOS7sWn7jGsI0qMANnGTtcmfPnj0MR8DHNxCoNC666KJD5FxmSS+/U9rUiKsc5L7wwgv3+aACgUAgUI3Zy+8D5QxTMd13332NGjdu3KVmzZr1VYHG9tprrwLHaOq33fZyLGvIkayRkZFRY5999nHnQBVwDYXhjrk2ugHX8zvX7dixo8aPf/xjt8kR3bRu3brFCiv28MMP/7lXr14L3Q2BQCXDR02tW7e+p27dusdJd5lZ4nvTrHli0ukt27dv33booYcepEbXzvXr168YN27cqz169JjhrwkEAoFAIFAQVLgvv/zy9apMV6oS3U6vjhzIAon2ZiZT1Kt8w3ph6UFlKikd8qycyZMnD2jXrt1pPkqBQHXFpiMLH98FAoFAIFBannnmmcunTZs2CCcRZ1FOajbj4HTsHE5euUc3Gytq4HDitBbknOo6Jhd34WrLYcjAwIEDW/kPlkIFHggEAoFAoMoSXtlXAvSa/vGPfzzzggsuaHzSSSc12meffQ6Ss7ktIyOj1l577RUTGex1aUyOZg02XsPXqpXfQSRndZucz526vuaPfvSjDP2+k23jxo2LR44c2f+DDz4YPGXKlI2LFy/e4W4IBAKBQCAQqMIEh7QKwAdGv/71r0+8+OKLG++7774N9ttvvwZ169ZlO2TvvfeuY+NGV69evRAHVFts586dW5YtW/bV5MmTR4waNeo/S5YsWT916lQc0Dx3cSAQCAQCgUAgEAgEAoFAIBAIBAKBQCAQCAQCgUAgEAgEAoFAIBAIBAKBQCAQCAQCgUAgEAgEAoFAIBAIBAKBQCAQCAQCgUAgEAgEAoFAIBAIBAKBQCAQCAQCgUAgEAgEAoFAIBAIBAKBQCAQCAQCgUAgEAgEAoFAIBAIBAKBQCAQCAQCgUAgEAgEAoFAIBAIBAKBQCAQCAQCgUAgEAgEAoFAIBAIBAKBQCAQCATSSo0a/x+0AJqIlXVRugAAAABJRU5ErkJggg==;" vertex="1" parent="1">
          <mxGeometry x="730" y="580" width="184.7" height="50" as="geometry" />
        </mxCell>
        <mxCell id="GP0ybidpaaOEdhKrM-CI-11" value="" style="dashed=0;outlineConnect=0;html=1;align=center;labelPosition=center;verticalLabelPosition=bottom;verticalAlign=top;shape=mxgraph.weblogos.chrome" vertex="1" parent="1">
          <mxGeometry x="180" y="324.6" width="74.8" height="75.4" as="geometry" />
        </mxCell>
        <mxCell id="GP0ybidpaaOEdhKrM-CI-17" value="Actor" style="shape=umlActor;verticalLabelPosition=bottom;verticalAlign=top;html=1;outlineConnect=0;" vertex="1" parent="1">
          <mxGeometry x="130" y="340" width="30" height="60" as="geometry" />
        </mxCell>
        <mxCell id="GP0ybidpaaOEdhKrM-CI-21" style="edgeStyle=orthogonalEdgeStyle;rounded=0;orthogonalLoop=1;jettySize=auto;html=1;entryX=0.003;entryY=0.386;entryDx=0;entryDy=0;entryPerimeter=0;" edge="1" parent="1" source="GP0ybidpaaOEdhKrM-CI-11" target="GP0ybidpaaOEdhKrM-CI-6">
          <mxGeometry relative="1" as="geometry" />
        </mxCell>
        <mxCell id="GP0ybidpaaOEdhKrM-CI-22" value="App nerwork" style="rounded=0;whiteSpace=wrap;html=1;" vertex="1" parent="1">
          <mxGeometry x="370" y="-20" width="260" height="90" as="geometry" />
        </mxCell>
      </root>
    </mxGraphModel>
  </diagram>
</mxfile>
